<svg width="18" height="19" viewBox="0 0 18 19" fill="none" xmlns="http://www.w3.org/2000/svg">
<path d="M17.823 6.17063C17.7816 5.23122 17.6297 4.58539 17.4121 4.02576C17.1876 3.43174 16.8422 2.8999 16.3897 2.45779C15.9476 2.0088 15.4122 1.65991 14.8251 1.43892C14.2622 1.2213 13.6198 1.06939 12.6804 1.02797C11.734 0.983045 11.4335 0.972656 9.03311 0.972656C6.63273 0.972656 6.33227 0.983045 5.38936 1.02446C4.44996 1.06588 3.80413 1.21793 3.24464 1.43541C2.65048 1.65991 2.11865 2.00529 1.67654 2.45779C1.22754 2.8999 0.878792 3.43524 0.657668 4.02239C0.440052 4.58539 0.288139 5.22771 0.246721 6.16712C0.201795 7.11354 0.191406 7.41399 0.191406 9.81438C0.191406 12.2148 0.201795 12.5152 0.243213 13.4581C0.284632 14.3976 0.436679 15.0434 0.654295 15.603C0.878792 16.197 1.22754 16.7289 1.67654 17.171C2.11865 17.62 2.65399 17.9689 3.24113 18.1898C3.80413 18.4075 4.44645 18.5594 5.38599 18.6008C6.32877 18.6424 6.62935 18.6526 9.02974 18.6526C11.4301 18.6526 11.7306 18.6424 12.6735 18.6008C13.6129 18.5594 14.2587 18.4075 14.8182 18.1898C16.0064 17.7305 16.9458 16.7911 17.4052 15.603C17.6227 15.04 17.7747 14.3976 17.8161 13.4581C17.8575 12.5152 17.8679 12.2148 17.8679 9.81438C17.8679 7.41399 17.8644 7.11354 17.823 6.17063ZM16.2309 13.3891C16.1929 14.2525 16.0478 14.7188 15.9269 15.0296C15.6299 15.7998 15.0186 16.4111 14.2483 16.7082C13.9375 16.8291 13.4679 16.9741 12.6078 17.0121C11.6753 17.0536 11.3956 17.0639 9.03662 17.0639C6.67765 17.0639 6.39447 17.0536 5.46532 17.0121C4.60187 16.9741 4.13561 16.8291 3.82477 16.7082C3.44148 16.5666 3.09259 16.3421 2.80941 16.0485C2.51583 15.7618 2.29134 15.4164 2.14968 15.0331C2.0288 14.7223 1.88376 14.2525 1.84585 13.3926C1.8043 12.46 1.79405 12.1802 1.79405 9.82127C1.79405 7.46229 1.8043 7.17911 1.84585 6.25009C1.88376 5.38664 2.0288 4.92038 2.14968 4.60953C2.29134 4.22611 2.51584 3.87736 2.81291 3.59404C3.09947 3.30046 3.44485 3.07597 3.82828 2.93444C4.13912 2.81356 4.60889 2.66853 5.46883 2.63048C6.40135 2.58906 6.68116 2.57867 9.03999 2.57867C11.4025 2.57867 11.6821 2.58906 12.6113 2.63048C13.4747 2.66853 13.941 2.81356 14.2518 2.93444C14.6351 3.07597 14.984 3.30046 15.2672 3.59404C15.5608 3.88073 15.7853 4.22611 15.9269 4.60953C16.0478 4.92038 16.1929 5.39001 16.2309 6.25009C16.2723 7.18262 16.2827 7.46229 16.2827 9.82127C16.2827 12.1802 16.2723 12.4565 16.2309 13.3891Z" fill="#141414"/>
<path d="M9.02612 5.27344C6.51874 5.27344 4.48438 7.30767 4.48438 9.81518C4.48438 12.3227 6.51874 14.3569 9.02612 14.3569C11.5336 14.3569 13.5679 12.3227 13.5679 9.81518C13.5679 7.30767 11.5336 5.27344 9.02612 5.27344ZM9.02612 12.7613C7.39946 12.7613 6.08 11.442 6.08 9.81518C6.08 8.18839 7.39946 6.86907 9.02612 6.86907C10.6529 6.86907 11.9722 8.18839 11.9722 9.81518C11.9722 11.442 10.6529 12.7613 9.02612 12.7613Z" fill="#141414"/>
<path d="M14.8121 5.09154C14.8121 5.67707 14.3374 6.15184 13.7517 6.15184C13.1662 6.15184 12.6914 5.67707 12.6914 5.09154C12.6914 4.50588 13.1662 4.03125 13.7517 4.03125C14.3374 4.03125 14.8121 4.50588 14.8121 5.09154Z" fill="#141414"/>
</svg>
