<svg width="14" height="19" viewBox="0 0 14 19" fill="none" xmlns="http://www.w3.org/2000/svg">
<path d="M7.06056 0.972656C4.62296 0.972656 2.64062 2.955 2.64062 5.39259C2.64062 7.83018 4.62296 9.81252 7.06056 9.81252C9.49815 9.81252 11.4805 7.83018 11.4805 5.39259C11.4805 2.955 9.49815 0.972656 7.06056 0.972656ZM7.06056 7.60255C5.84176 7.60255 4.85059 6.61138 4.85059 5.39259C4.85059 4.17379 5.84176 3.18262 7.06056 3.18262C8.27935 3.18262 9.27052 4.17379 9.27052 5.39259C9.27052 6.61138 8.27935 7.60255 7.06056 7.60255Z" fill="#141414"/>
<path d="M12.9235 9.69122C12.4914 9.25918 11.7931 9.25918 11.361 9.69122C8.99196 12.0603 5.13558 12.0603 2.76539 9.69122C2.33334 9.25918 1.63499 9.25918 1.20294 9.69122C0.770894 10.1233 0.770894 10.8216 1.20294 11.2548C2.57754 12.6294 4.3201 13.4128 6.1168 13.6172L2.96649 16.7676C2.53445 17.1996 2.53445 17.898 2.96649 18.33C3.39854 18.7621 4.09689 18.7621 4.52894 18.33L7.06267 15.7963L9.59639 18.33C9.81186 18.5455 10.0947 18.6538 10.3776 18.6538C10.6605 18.6538 10.9434 18.5455 11.1588 18.33C11.5909 17.898 11.5909 17.1996 11.1588 16.7676L8.00853 13.6172C9.80523 13.4128 11.5478 12.6294 12.9224 11.2548C13.3544 10.8227 13.3544 10.1233 12.9235 9.69122Z" fill="#141414"/>
</svg>
