<svg width="18" height="15" viewBox="0 0 18 15" fill="none" xmlns="http://www.w3.org/2000/svg">
<path d="M17.8402 2.03263C17.1827 2.32103 16.4821 2.5122 15.7517 2.60502C16.5031 2.15639 17.0766 1.4514 17.3462 0.601651C16.6457 1.01934 15.8722 1.31438 15.0478 1.47902C14.3826 0.770716 13.4345 0.332031 12.4002 0.332031C10.3936 0.332031 8.77805 1.9608 8.77805 3.95754C8.77805 4.24484 8.80236 4.52109 8.86203 4.78408C5.8487 4.63711 3.18233 3.19288 1.39113 0.992821C1.07841 1.53538 0.894981 2.15639 0.894981 2.82491C0.894981 4.08019 1.54141 5.19293 2.50497 5.83714C1.92263 5.82609 1.35135 5.65703 0.867356 5.39072C0.867356 5.40177 0.867356 5.41614 0.867356 5.4305C0.867356 7.19187 2.12374 8.65489 3.7713 8.99192C3.47626 9.07258 3.15471 9.11126 2.821 9.11126C2.58895 9.11126 2.35469 9.098 2.13479 9.04938C2.60442 10.4848 3.93705 11.54 5.52162 11.5743C4.28844 12.539 2.72265 13.1202 1.02758 13.1202C0.730336 13.1202 0.445246 13.1069 0.160156 13.0705C1.76572 14.1059 3.66853 14.697 5.72052 14.697C12.3903 14.697 16.0368 9.17203 16.0368 4.38296C16.0368 4.22274 16.0313 4.06804 16.0235 3.91444C16.7429 3.40393 17.3473 2.76635 17.8402 2.03263Z" fill="#141414"/>
</svg>
