<svg width="18" height="11" viewBox="0 0 18 11" fill="none" xmlns="http://www.w3.org/2000/svg">
<path d="M14.8308 6.13474C14.545 5.77365 14.6268 5.613 14.8308 5.29023C14.8345 5.28655 17.194 2.02494 17.4371 0.918823L17.4386 0.918087C17.5594 0.514992 17.4386 0.21875 16.8544 0.21875H14.9214C14.4293 0.21875 14.2025 0.472987 14.0809 0.757438C14.0809 0.757438 13.0967 3.11411 11.7044 4.64174C11.2551 5.08316 11.0473 5.22464 10.802 5.22464C10.6812 5.22464 10.4933 5.08316 10.4933 4.68006V0.918087C10.4933 0.434667 10.3556 0.21875 9.94822 0.21875H6.90874C6.60008 0.21875 6.41665 0.444247 6.41665 0.65427C6.41665 1.11263 7.1128 1.21801 7.18499 2.50762V5.30571C7.18499 5.91882 7.07375 6.03157 6.82697 6.03157C6.16987 6.03157 4.57499 3.66532 3.62985 0.957143C3.43905 0.43172 3.25267 0.219487 2.7569 0.219487H0.823154C0.271393 0.219487 0.160156 0.473724 0.160156 0.758175C0.160156 1.26075 0.817261 3.75965 3.21584 7.06105C4.8144 9.31455 7.06565 10.5356 9.11358 10.5356C10.3445 10.5356 10.4948 10.2644 10.4948 9.79797C10.4948 7.64469 10.3836 7.4413 11.0002 7.4413C11.286 7.4413 11.7781 7.58279 12.9273 8.66974C14.2408 9.95862 14.4566 10.5356 15.1918 10.5356H17.1248C17.6758 10.5356 17.955 10.2644 17.7944 9.72943C17.4268 8.60416 14.9428 6.28949 14.8308 6.13474Z" fill="#141414"/>
</svg>
