<svg width="18" height="19" fill="none" xmlns="http://www.w3.org/2000/svg"><path d="M17.823 6.17c-.041-.939-.193-1.585-.41-2.144a4.315 4.315 0 00-1.023-1.568 4.351 4.351 0 00-1.565-1.02c-.563-.217-1.205-.369-2.145-.41-.946-.045-1.246-.055-3.647-.055-2.4 0-2.7.01-3.644.051-.939.042-1.585.194-2.144.411a4.314 4.314 0 00-1.568 1.023 4.353 4.353 0 00-1.02 1.564C.44 4.585.289 5.228.248 6.167.202 7.114.19 7.414.19 9.814c0 2.4.01 2.701.052 3.644.042.94.194 1.585.411 2.145a4.36 4.36 0 001.023 1.568A4.35 4.35 0 003.24 18.19c.563.217 1.205.37 2.145.41.943.042 1.243.053 3.644.053 2.4 0 2.7-.01 3.644-.052.939-.042 1.585-.194 2.144-.411a4.522 4.522 0 002.587-2.587c.218-.563.37-1.205.411-2.145.042-.943.052-1.243.052-3.644 0-2.4-.004-2.7-.045-3.643zm-1.592 7.22c-.038.862-.183 1.329-.304 1.64a2.932 2.932 0 01-1.679 1.678c-.31.121-.78.266-1.64.304-.933.042-1.212.052-3.571.052-2.36 0-2.643-.01-3.572-.052-.863-.038-1.33-.183-1.64-.304a2.72 2.72 0 01-1.016-.66 2.749 2.749 0 01-.66-1.015c-.12-.31-.265-.78-.303-1.64-.042-.933-.052-1.213-.052-3.572s.01-2.642.052-3.57c.038-.864.183-1.33.304-1.641.141-.384.366-.733.663-1.016a2.745 2.745 0 011.015-.66c.311-.12.78-.265 1.64-.304.933-.04 1.213-.051 3.572-.051 2.363 0 2.642.01 3.571.051.864.039 1.33.184 1.64.304.384.142.733.366 1.016.66.294.287.518.632.66 1.016.12.31.266.78.304 1.64.041.933.052 1.212.052 3.571 0 2.36-.01 2.636-.052 3.568z" fill="#141414"/><path d="M9.026 5.273a4.543 4.543 0 000 9.084 4.543 4.543 0 000-9.084zm0 7.488a2.947 2.947 0 11.001-5.893 2.947 2.947 0 010 5.893zm5.786-7.669a1.06 1.06 0 11-2.12 0 1.06 1.06 0 012.12 0z" fill="#141414"/></svg>