<svg width="14" height="19" fill="none" xmlns="http://www.w3.org/2000/svg"><path d="M7.06.973a4.424 4.424 0 00-4.42 4.42 4.424 4.424 0 004.42 4.42 4.424 4.424 0 004.42-4.42A4.424 4.424 0 007.06.973zm0 6.63a2.212 2.212 0 01-2.21-2.21 2.21 2.21 0 112.21 2.21z" fill="#141414"/><path d="M12.924 9.691a1.104 1.104 0 00-1.563 0 6.086 6.086 0 01-8.596 0 1.105 1.105 0 10-1.562 1.564 8.237 8.237 0 004.914 2.362l-3.15 3.15a1.104 1.104 0 101.562 1.563l2.534-2.534 2.533 2.534a1.102 1.102 0 001.563 0 1.104 1.104 0 000-1.562l-3.15-3.15a8.237 8.237 0 004.913-2.363 1.106 1.106 0 00.002-1.564z" fill="#141414"/></svg>