<svg width="18" height="15" fill="none" xmlns="http://www.w3.org/2000/svg"><path d="M17.84 2.033a7.558 7.558 0 01-2.088.572A3.604 3.604 0 0017.346.602c-.7.417-1.474.712-2.298.877a3.623 3.623 0 00-6.27 2.479c0 .287.024.563.084.826A10.26 10.26 0 011.392.993a3.65 3.65 0 00-.497 1.832 3.63 3.63 0 001.61 3.012 3.58 3.58 0 01-1.638-.446v.04a3.641 3.641 0 002.904 3.56c-.295.082-.616.12-.95.12a3.18 3.18 0 01-.686-.062 3.66 3.66 0 003.387 2.525 7.283 7.283 0 01-4.494 1.546 6.8 6.8 0 01-.868-.05 10.204 10.204 0 005.56 1.627c6.67 0 10.317-5.525 10.317-10.314 0-.16-.006-.315-.014-.469a7.231 7.231 0 001.817-1.881z" fill="#141414"/></svg>