<svg width="18" height="11" fill="none" xmlns="http://www.w3.org/2000/svg"><path d="M14.83 6.135c-.285-.361-.203-.522 0-.845.005-.003 2.364-3.265 2.607-4.371h.002c.12-.404 0-.7-.585-.7h-1.933c-.492 0-.718.254-.84.538 0 0-.984 2.357-2.377 3.885-.449.441-.657.583-.902.583-.12 0-.309-.142-.309-.545V.918c0-.483-.137-.7-.545-.7h-3.04c-.308 0-.491.226-.491.436 0 .459.696.564.768 1.854v2.798c0 .613-.111.726-.358.726-.657 0-2.252-2.367-3.197-5.075C3.44.432 3.253.22 2.757.22H.823C.271.22.16.474.16.76c0 .502.657 3 3.056 6.302 1.598 2.254 3.85 3.475 5.898 3.475 1.23 0 1.38-.272 1.38-.738 0-2.153-.11-2.357.506-2.357.286 0 .778.142 1.927 1.229 1.314 1.289 1.53 1.866 2.265 1.866h1.933c.55 0 .83-.272.67-.807-.368-1.125-2.852-3.44-2.964-3.594z" fill="#141414"/></svg>