<svg width="35" height="25" fill="none" xmlns="http://www.w3.org/2000/svg"><path d="M33.81 11.74L23.582.378A1.137 1.137 0 0022.738 0H15.92a1.137 1.137 0 00-.846 1.895L24.617 12.5l-9.544 10.602A1.138 1.138 0 0015.92 25h6.818c.323 0 .627-.139.846-.375L33.81 13.261a1.137 1.137 0 000-1.52z" fill="#BC2B29"/><path d="M19.029 11.74L8.8.378A1.137 1.137 0 007.956 0H1.138a1.138 1.138 0 00-.845 1.895L9.834 12.5.292 23.102A1.138 1.138 0 001.137 25h6.819c.323 0 .627-.139.845-.375L19.03 13.261a1.137 1.137 0 000-1.52z" fill="#BC2B29"/></svg>