<?xml version="1.0" encoding="utf-8"?><svg viewBox="0 0 35 25" xmlns="http://www.w3.org/2000/svg" xmlns:xlink="http://www.w3.org/1999/xlink"><style>:root>svg{display:none}:root>svg:target{display:block}</style><svg fill="none" viewBox="0 0 15 15" id="calendar" xmlns="http://www.w3.org/2000/svg"><path d="M13.393 1.607h-1.607V.536a.536.536 0 10-1.072 0v1.071H4.286V.536a.536.536 0 10-1.072 0v1.071H1.607C.72 1.607 0 2.327 0 3.214v10.179C0 14.28.72 15 1.607 15h11.786C14.28 15 15 14.28 15 13.393V3.214c0-.887-.72-1.607-1.607-1.607zm.536 11.786c0 .296-.24.536-.536.536H1.607a.536.536 0 01-.536-.536V6.429H13.93v6.964zm0-8.036H1.07V3.214c0-.296.24-.535.536-.535h1.607V3.75a.536.536 0 001.072 0V2.679h6.428V3.75a.536.536 0 101.072 0V2.679h1.607c.296 0 .536.24.536.535v2.143z" fill="#005170"/><path d="M4.286 7.5H3.214a.536.536 0 100 1.071h1.072a.536.536 0 100-1.071zM8.036 7.5H6.964a.536.536 0 100 1.071h1.072a.536.536 0 100-1.071zM11.786 7.5h-1.072a.536.536 0 100 1.071h1.072a.536.536 0 100-1.071zM4.286 9.645H3.214a.536.536 0 000 1.071h1.072a.536.536 0 000-1.071zM8.036 9.645H6.964a.536.536 0 000 1.071h1.072a.536.536 0 000-1.071zM11.786 9.645h-1.072a.536.536 0 100 1.071h1.072a.536.536 0 000-1.071zM4.286 11.785H3.214a.536.536 0 100 1.072h1.072a.536.536 0 000-1.072zM8.036 11.785H6.964a.536.536 0 100 1.072h1.072a.536.536 0 100-1.072zM11.786 11.785h-1.072a.536.536 0 100 1.072h1.072a.536.536 0 100-1.072z" fill="#005170"/></svg><svg fill="none" viewBox="0 0 14 12" id="comment" xmlns="http://www.w3.org/2000/svg"><path d="M11.785 0H2.328C1.34 0 .535.804.535 1.793v5.788c0 .986.801 1.79 1.787 1.793V12l3.774-2.626h5.69c.988 0 1.792-.805 1.792-1.793V1.793C13.578.804 12.774 0 11.785 0zm1.03 7.58a1.03 1.03 0 01-1.03 1.03H5.856l-2.77 1.927V8.61h-.758A1.03 1.03 0 011.3 7.58V1.794A1.03 1.03 0 012.33.764h9.456a1.03 1.03 0 011.03 1.03V7.58z" fill="#333"/><path d="M4.027 2.7h6.062v.764H4.027V2.7zM4.027 4.331h6.062v.764H4.027v-.764zM4.027 5.96h6.062v.764H4.027V5.96z" fill="#333"/></svg><svg fill="none" viewBox="0 0 14 13" id="date" xmlns="http://www.w3.org/2000/svg"><path d="M12.07 1.104h-.845V.38c0-.208-.158-.379-.351-.379-.193 0-.35.17-.35.38v.724H7.085V.38C7.086.171 6.928 0 6.735 0c-.193 0-.35.17-.35.38v.724H2.91V.38c0-.208-.157-.379-.35-.379-.193 0-.351.17-.351.38v.724H1.4c-.772 0-1.4.702-1.4 1.537v8.821c0 .839.624 1.518 1.4 1.518h10.667c.775 0 1.4-.68 1.4-1.514V2.641c.003-.835-.625-1.537-1.397-1.537zm.698 10.358c0 .418-.309.755-.694.76H1.4c-.386 0-.698-.339-.698-.756V2.641c0-.421.312-.778.698-.778h.81v.55c0 .209.158.38.35.38.194 0 .351-.171.351-.38v-.55h3.473v.55c0 .209.158.38.35.38.194 0 .352-.171.352-.38v-.55h3.437v.55c0 .209.158.38.351.38.193 0 .35-.171.35-.38v-.55h.846c.39 0 .698.36.698.778v8.821z" fill="#fff"/><path d="M5.812 4.33h-.614c-.193 0-.35.17-.35.378 0 .209.157.38.35.38h.614c.193 0 .351-.171.351-.38 0-.208-.158-.379-.35-.379zM8.254 4.33H7.64c-.193 0-.35.17-.35.378 0 .209.157.38.35.38h.614c.193 0 .35-.171.35-.38 0-.208-.154-.379-.35-.379zM10.715 4.33H10.1c-.193 0-.351.17-.351.378 0 .209.158.38.35.38h.615c.193 0 .35-.171.35-.38 0-.208-.157-.379-.35-.379zM5.812 6.947h-.614c-.193 0-.35.17-.35.38 0 .208.157.379.35.379h.614c.193 0 .351-.171.351-.38 0-.208-.158-.379-.35-.379zM3.351 6.947h-.617c-.193 0-.351.17-.351.38 0 .208.158.379.35.379h.614c.193 0 .351-.171.351-.38 0-.208-.154-.379-.347-.379zM8.254 6.947H7.64c-.193 0-.35.17-.35.38 0 .208.157.379.35.379h.614c.193 0 .35-.171.35-.38 0-.208-.154-.379-.35-.379zM10.715 6.947H10.1c-.193 0-.351.17-.351.38 0 .208.158.379.35.379h.615c.193 0 .35-.171.35-.38 0-.208-.157-.379-.35-.379zM5.812 9.527h-.614c-.193 0-.35.171-.35.38 0 .208.157.379.35.379h.614c.193 0 .351-.17.351-.38 0-.208-.158-.379-.35-.379zM3.351 9.527h-.617c-.193 0-.351.171-.351.38 0 .208.158.379.35.379h.614c.193 0 .351-.17.351-.38 0-.208-.154-.379-.347-.379zM8.254 9.527H7.64c-.193 0-.35.171-.35.38 0 .208.157.379.35.379h.614c.193 0 .35-.17.35-.38 0-.208-.154-.379-.35-.379z" fill="#fff"/></svg><svg fill="none" viewBox="0 0 35 25" id="double-arrow" xmlns="http://www.w3.org/2000/svg"><path d="M33.81 11.74L23.582.378A1.137 1.137 0 0022.738 0H15.92a1.137 1.137 0 00-.846 1.895L24.617 12.5l-9.544 10.602A1.138 1.138 0 0015.92 25h6.818c.323 0 .627-.139.846-.375L33.81 13.261a1.137 1.137 0 000-1.52z" fill="#BC2B29"/><path d="M19.029 11.74L8.8.378A1.137 1.137 0 007.956 0H1.138a1.138 1.138 0 00-.845 1.895L9.834 12.5.292 23.102A1.138 1.138 0 001.137 25h6.819c.323 0 .627-.139.845-.375L19.03 13.261a1.137 1.137 0 000-1.52z" fill="#BC2B29"/></svg><svg fill="none" viewBox="0 0 15 15" id="edition" xmlns="http://www.w3.org/2000/svg"><path d="M10.692 3.52H.746A.746.746 0 000 4.265v9.947c0 .412.334.745.746.745h9.946a.746.746 0 00.746-.746V4.265a.746.746 0 00-.746-.745zm-.746 9.946H1.492V5.01h8.454v8.454zM14.852 12.55h-.809V3.844h.81a.147.147 0 00.104-.252L13.65 2.286a.148.148 0 00-.209 0l-1.306 1.306a.147.147 0 00.104.252h.81v8.706h-.81a.148.148 0 00-.104.252l1.306 1.307a.148.148 0 00.21 0l1.306-1.307a.147.147 0 00-.104-.253zM2.157 2.865a.147.147 0 00.252-.104v-.81h8.706v.81a.147.147 0 00.252.104l1.306-1.306a.148.148 0 000-.21L11.367.044a.147.147 0 00-.252.105v.809H2.409v-.81a.148.148 0 00-.252-.104L.85 1.35a.148.148 0 000 .209l1.307 1.306z" fill="#005170"/></svg><svg fill="none" viewBox="0 0 21 12" id="eye" xmlns="http://www.w3.org/2000/svg"><path d="M20.457 5.757C20.295 5.52 16.41 0 10.267 0 4.995 0 .298 5.49.1 5.723a.43.43 0 000 .554C.298 6.51 4.995 12 10.267 12c5.27 0 9.968-5.49 10.165-5.723a.43.43 0 00.025-.52zm-10.19 5.386C6.04 11.143 2.023 7.106 1.003 6 2.022 4.893 6.035.857 10.267.857c4.944 0 8.434 4.031 9.286 5.12-.984 1.07-5.025 5.166-9.286 5.166z" fill="#141414"/><path d="M10.266 2.572a3.429 3.429 0 000 6.857 3.429 3.429 0 000-6.857zm0 6a2.572 2.572 0 010-5.143 2.572 2.572 0 010 5.143z" fill="#141414"/></svg><svg fill="none" viewBox="0 0 7 13" id="facebook" xmlns="http://www.w3.org/2000/svg"><path d="M5.314 2.103H6.5V.089C6.296.062 5.592 0 4.771 0c-1.71 0-2.883 1.048-2.883 2.975v1.773H0V7h1.888v5.664h2.315V7h1.812l.288-2.251h-2.1v-1.55c0-.651.18-1.096 1.11-1.096z" fill="#fff"/></svg><svg fill="none" viewBox="0 0 13 13" id="inst" xmlns="http://www.w3.org/2000/svg"><path d="M12.964 3.723c-.03-.673-.142-1.136-.302-1.536a3.083 3.083 0 00-.752-1.123 3.21 3.21 0 00-1.15-.73C10.346.178 9.874.069 9.183.04 8.487.007 8.266 0 6.501 0S4.515.007 3.822.037c-.69.03-1.166.139-1.577.294-.437.161-.828.409-1.153.733-.33.316-.587.7-.75 1.12-.16.403-.27.864-.301 1.536C.008 4.398 0 4.613 0 6.333c0 1.719.008 1.934.038 2.61.03.672.142 1.135.302 1.535.165.426.422.807.752 1.123a3.21 3.21 0 001.15.73c.414.156.887.265 1.578.295.693.03.914.037 2.679.037 1.765 0 1.986-.008 2.679-.037.69-.03 1.166-.139 1.577-.295a3.283 3.283 0 001.902-1.853c.16-.403.272-.863.302-1.536.03-.675.038-.89.038-2.61 0-1.719-.002-1.934-.033-2.61zm-1.17 5.17c-.028.618-.135.952-.224 1.175a2.13 2.13 0 01-1.234 1.202c-.229.087-.574.19-1.206.218-.686.03-.892.037-2.626.037-1.735 0-1.943-.008-2.626-.037-.635-.027-.978-.131-1.206-.218a2.006 2.006 0 01-.747-.473 1.964 1.964 0 01-.485-.727c-.089-.222-.196-.559-.224-1.175-.03-.668-.038-.868-.038-2.558 0-1.689.008-1.892.038-2.557.028-.619.135-.953.224-1.175a1.92 1.92 0 01.488-.728c.21-.21.464-.37.746-.472.229-.087.574-.19 1.206-.218.686-.03.892-.037 2.626-.037 1.737 0 1.943.008 2.626.037.635.028.978.131 1.207.218.281.101.538.262.746.472.216.206.381.453.485.728.09.222.196.559.224 1.175.03.668.038.868.038 2.557 0 1.69-.008 1.888-.038 2.556z" fill="#fff"/><path d="M6.5 3.078c-1.844 0-3.34 1.457-3.34 3.253S4.656 9.584 6.5 9.584c1.843 0 3.34-1.457 3.34-3.253S8.342 3.078 6.5 3.078zm0 5.363c-1.196 0-2.167-.945-2.167-2.11s.97-2.11 2.167-2.11c1.196 0 2.166.945 2.166 2.11S7.696 8.44 6.5 8.44zM10.75 2.951c0 .42-.348.76-.779.76a.77.77 0 01-.78-.76c0-.42.35-.76.78-.76.43 0 .78.34.78.76z" fill="#fff"/></svg><svg fill="none" viewBox="0 0 10 13" id="odnoklassniki" xmlns="http://www.w3.org/2000/svg"><path d="M4.547 0c-1.793 0-3.25 1.42-3.25 3.166S2.754 6.33 4.547 6.33c1.792 0 3.25-1.42 3.25-3.165C7.797 1.42 6.339 0 4.547 0zm0 4.748c-.896 0-1.625-.71-1.625-1.582 0-.873.729-1.583 1.625-1.583s1.625.71 1.625 1.583-.729 1.582-1.625 1.582z" fill="#fff"/><path d="M8.856 6.244a.827.827 0 00-1.149 0c-1.742 1.697-4.577 1.697-6.32 0a.827.827 0 00-1.149 0 .777.777 0 000 1.12 6.123 6.123 0 003.613 1.692l-2.316 2.256a.776.776 0 000 1.119c.318.31.831.31 1.149 0l1.863-1.815 1.863 1.815a.822.822 0 00.574.232.822.822 0 00.575-.232.776.776 0 000-1.119L5.242 9.056a6.123 6.123 0 003.614-1.692.778.778 0 000-1.12z" fill="#fff"/></svg><svg fill="none" viewBox="0 0 15 18" id="pages" xmlns="http://www.w3.org/2000/svg"><path d="M4 0v2H2v2H0v13.067h11v-2.034h2v-2h2V0H4zm6 16.067H1V5h6v3h3v8.067zM10 7H8V5h.293L10 6.707V7zm2 7.033h-1v-7.74L8.707 4H3V3h9v11.033zm2-2h-1V2H5V1h9v11.033z" fill="#005170"/></svg><svg fill="none" viewBox="0 0 10 15" id="pin" xmlns="http://www.w3.org/2000/svg"><path d="M4.802 0C2.154 0 0 2.33 0 5.194c0 .943.391 1.957.407 2 .127.324.376.828.555 1.123l3.293 5.397c.135.22.334.348.547.348.213 0 .413-.127.547-.348l3.293-5.397c.18-.295.43-.799.555-1.123.017-.042.408-1.056.408-2C9.605 2.33 7.45 0 4.802 0zm3.875 6.957c-.113.29-.345.76-.506 1.024l-3.293 5.396c-.065.107-.086.107-.15 0L1.433 7.981a7.904 7.904 0 01-.506-1.024C.923 6.944.565 6.01.565 5.194c0-2.527 1.9-4.583 4.237-4.583S9.04 2.667 9.04 5.194c0 .818-.36 1.754-.363 1.763z" fill="#fff"/><path d="M4.804 2.444c-1.402 0-2.542 1.234-2.542 2.75s1.14 2.75 2.542 2.75 2.542-1.234 2.542-2.75-1.14-2.75-2.542-2.75zm0 4.89c-1.09 0-1.977-.96-1.977-2.14 0-1.18.887-2.139 1.977-2.139s1.977.96 1.977 2.14c0 1.179-.887 2.138-1.977 2.138z" fill="#fff"/></svg><svg fill="none" viewBox="0 0 12 12" id="share" xmlns="http://www.w3.org/2000/svg"><path d="M9.66 3.75a1.877 1.877 0 01-1.875-1.875C7.785.841 8.627 0 9.66 0c1.034 0 1.875.841 1.875 1.875A1.877 1.877 0 019.66 3.75zm0-3c-.62 0-1.125.504-1.125 1.125C8.535 2.495 9.04 3 9.66 3s1.125-.504 1.125-1.125c0-.62-.505-1.125-1.125-1.125zM9.66 12a1.877 1.877 0 01-1.875-1.875c0-1.034.842-1.875 1.875-1.875 1.034 0 1.875.841 1.875 1.875A1.877 1.877 0 019.66 12zm0-3c-.62 0-1.125.504-1.125 1.125 0 .62.505 1.125 1.125 1.125s1.125-.505 1.125-1.125S10.28 9 9.66 9zM2.41 7.875A1.877 1.877 0 01.535 6c0-1.034.842-1.875 1.875-1.875 1.034 0 1.875.841 1.875 1.875A1.877 1.877 0 012.41 7.875zm0-3c-.62 0-1.125.504-1.125 1.125 0 .62.505 1.125 1.125 1.125S3.535 6.621 3.535 6c0-.62-.505-1.125-1.125-1.125z" fill="#141414"/><path d="M3.72 5.636a.374.374 0 01-.187-.7l4.64-2.646a.375.375 0 01.371.652l-4.64 2.645a.376.376 0 01-.185.049zM8.354 9.759a.372.372 0 01-.185-.05l-4.64-2.645a.375.375 0 01.371-.651l4.64 2.645a.375.375 0 01-.186.7z" fill="#141414"/></svg><svg fill="none" viewBox="0 0 13 13" id="sun" xmlns="http://www.w3.org/2000/svg"><path d="M8.806 4.195a3.278 3.278 0 00-2.304-.963c-.895 0-1.72.362-2.305.963A3.278 3.278 0 003.234 6.5c0 .894.379 1.72.963 2.304.585.585 1.41.963 2.305.963.894 0 1.72-.361 2.304-.963.584-.585.963-1.41.963-2.304 0-.895-.361-1.72-.963-2.305zm-.62 3.99c-.43.43-1.031.688-1.684.688a2.379 2.379 0 01-1.686-.688A2.379 2.379 0 014.13 6.5c0-.654.257-1.256.687-1.686a2.379 2.379 0 011.686-.687c.653 0 1.255.258 1.685.687.43.43.688 1.032.688 1.686 0 .653-.258 1.255-.688 1.685zM12.552 6.053h-1.324a.455.455 0 00-.447.447c0 .24.207.446.447.446h1.324c.241 0 .447-.206.447-.446a.455.455 0 00-.447-.447zM6.502 10.781a.455.455 0 00-.447.447v1.324c0 .241.206.447.447.447.24 0 .447-.206.447-.447v-1.324a.455.455 0 00-.447-.447zM11.092 10.472l-.946-.946c-.154-.172-.447-.172-.619 0a.436.436 0 000 .62l.946.945a.436.436 0 00.62 0 .436.436 0 000-.619zM6.502 0a.455.455 0 00-.447.447v1.324c0 .24.206.447.447.447.24 0 .447-.206.447-.447V.447A.455.455 0 006.502 0zM11.108 1.91a.436.436 0 00-.62 0l-.945.945a.436.436 0 000 .62c.155.171.447.171.62 0l.945-.947a.436.436 0 000-.619zM1.771 6.053H.447A.455.455 0 000 6.5c0 .24.19.446.447.446h1.324c.24 0 .447-.206.447-.446a.455.455 0 00-.447-.447zM3.455 9.526c-.154-.172-.447-.172-.619 0l-.945.946a.436.436 0 000 .62.436.436 0 00.619 0l.946-.947a.436.436 0 000-.619zM3.455 2.855l-.945-.946a.436.436 0 00-.62 0 .436.436 0 000 .62l.946.945a.436.436 0 00.62 0 .436.436 0 000-.619z" fill="#fff"/></svg><svg fill="none" viewBox="0 0 13 11" id="twitter" xmlns="http://www.w3.org/2000/svg"><path d="M13 1.218a5.673 5.673 0 01-1.536.41A2.594 2.594 0 0012.637.193c-.515.3-1.084.51-1.69.628A2.704 2.704 0 009 0C7.525 0 6.337 1.166 6.337 2.596c0 .206.018.404.061.592A7.612 7.612 0 01.905.473C.675.862.54 1.307.54 1.785c0 .9.476 1.696 1.184 2.158a2.686 2.686 0 01-1.204-.32v.028c0 1.262.924 2.31 2.135 2.551a2.727 2.727 0 01-.698.085c-.171 0-.343-.009-.505-.044a2.682 2.682 0 002.49 1.808A5.447 5.447 0 01.638 9.16c-.219 0-.428-.01-.638-.036a7.65 7.65 0 004.088 1.165c4.905 0 7.586-3.957 7.586-7.387a6.55 6.55 0 00-.01-.335A5.243 5.243 0 0013 1.218z" fill="#fff"/></svg><svg fill="none" viewBox="0 0 13 8" id="vk" xmlns="http://www.w3.org/2000/svg"><path d="M10.787 4.237c-.21-.259-.15-.374 0-.605.003-.002 1.738-2.338 1.917-3.13V.5c.09-.289 0-.501-.429-.501h-1.421c-.362 0-.529.182-.618.386 0 0-.724 1.688-1.748 2.782-.33.316-.483.417-.663.417-.089 0-.227-.101-.227-.39V.501c0-.346-.101-.501-.4-.501H4.961C4.735 0 4.6.162 4.6.312c0 .328.512.404.565 1.327v2.004c0 .44-.081.52-.263.52-.483 0-1.656-1.695-2.35-3.634C2.41.153 2.273 0 1.908 0H.487C.082 0 0 .183 0 .386c0 .36.483 2.15 2.247 4.514C3.422 6.514 5.077 7.39 6.583 7.39c.906 0 1.016-.194 1.016-.528 0-1.543-.082-1.688.372-1.688.21 0 .572.101 1.417.88.965.923 1.124 1.336 1.665 1.336h1.421c.405 0 .61-.194.492-.577-.27-.806-2.096-2.464-2.179-2.575z" fill="#fff"/></svg></svg>