<svg width="20" height="22" viewBox="0 0 20 22" fill="none" xmlns="http://www.w3.org/2000/svg">
<path d="M7.22418 12.0576C7.22418 11.8013 7.01635 11.5938 6.75992 11.5938H5.1398C4.88365 11.5938 4.67578 11.8013 4.67578 12.0576V13.6775C4.67578 13.934 4.88365 14.1417 5.1398 14.1417H6.75992C7.01635 14.1417 7.22418 13.934 7.22418 13.6775V12.0576Z" fill="#BC2B29"/>
<path d="M11.2737 12.0576C11.2737 11.8013 11.0659 11.5938 10.8099 11.5938H9.1896C8.93346 11.5938 8.72559 11.8013 8.72559 12.0576V13.6775C8.72559 13.934 8.93346 14.1417 9.1896 14.1417H10.8099C11.0659 14.1417 11.2737 13.934 11.2737 13.6775V12.0576Z" fill="#BC2B29"/>
<path d="M15.3223 12.0576C15.3223 11.8013 15.1145 11.5938 14.8583 11.5938H13.2382C12.9818 11.5938 12.7739 11.8013 12.7739 12.0576V13.6775C12.7739 13.934 12.9818 14.1417 13.2382 14.1417H14.8583C15.1145 14.1417 15.3223 13.934 15.3223 13.6775V12.0576Z" fill="#BC2B29"/>
<path d="M7.22418 16.1086C7.22418 15.8519 7.01635 15.6445 6.75992 15.6445H5.1398C4.88365 15.6445 4.67578 15.8519 4.67578 16.1086V17.7282C4.67578 17.9846 4.88365 18.1922 5.1398 18.1922H6.75992C7.01635 18.1922 7.22418 17.9846 7.22418 17.7282V16.1086Z" fill="#BC2B29"/>
<path d="M11.2737 16.1086C11.2737 15.8519 11.0659 15.6445 10.8099 15.6445H9.1896C8.93346 15.6445 8.72559 15.8519 8.72559 16.1086V17.7282C8.72559 17.9846 8.93346 18.1922 9.1896 18.1922H10.8099C11.0659 18.1922 11.2737 17.9846 11.2737 17.7282V16.1086Z" fill="#BC2B29"/>
<path d="M15.3223 16.1086C15.3223 15.8519 15.1145 15.6445 14.8585 15.6445H13.2382C12.9818 15.6445 12.7739 15.8519 12.7739 16.1086V17.7282C12.7739 17.9846 12.9818 18.1922 13.2382 18.1922H14.8585C15.1145 18.1922 15.3223 17.9846 15.3223 17.7282V16.1086Z" fill="#BC2B29"/>
<path d="M18.2206 3.05185V5.52613C18.2206 6.64448 17.3133 7.5457 16.1951 7.5457H14.9174C13.7992 7.5457 12.8799 6.64448 12.8799 5.52613V3.04297H7.12094V5.52613C7.12094 6.64448 6.20171 7.5457 5.08361 7.5457H3.80566C2.68752 7.5457 1.78031 6.64448 1.78031 5.52613V3.05185C0.803041 3.08131 0 3.88996 0 4.88391V19.3844C0 20.397 0.820766 21.2287 1.8334 21.2287H18.1674C19.1785 21.2287 20.0008 20.3953 20.0008 19.3844V4.88391C20.0008 3.88996 19.1978 3.08131 18.2206 3.05185ZM17.6271 18.4814C17.6271 18.919 17.2723 19.274 16.8345 19.274H3.13142C2.69363 19.274 2.33881 18.919 2.33881 18.4814V10.9914C2.33881 10.5536 2.69359 10.1986 3.13142 10.1986H16.8345C17.2722 10.1986 17.6271 10.5536 17.6271 10.9914L17.6271 18.4814Z" fill="#BC2B29"/>
<path d="M3.8006 6.21832H5.06443C5.44804 6.21832 5.75907 5.90775 5.75907 5.52414V1.46787C5.75907 1.08422 5.44804 0.773438 5.06443 0.773438H3.8006C3.41695 0.773438 3.10596 1.08422 3.10596 1.46787V5.52414C3.10596 5.90775 3.41695 6.21832 3.8006 6.21832Z" fill="#BC2B29"/>
<path d="M14.9016 6.21832H16.1655C16.5488 6.21832 16.8599 5.90775 16.8599 5.52414V1.46787C16.8599 1.08422 16.5489 0.773438 16.1655 0.773438H14.9016C14.5181 0.773438 14.207 1.08422 14.207 1.46787V5.52414C14.207 5.90775 14.5181 6.21832 14.9016 6.21832Z" fill="#BC2B29"/>
</svg>
