<svg width="16" height="15" viewBox="0 0 16 15" fill="none" xmlns="http://www.w3.org/2000/svg">
<path d="M1.63042 8.25781C0.731736 8.25781 0 7.5451 0 6.66978V1.58803C0 0.712714 0.731736 0 1.63042 0H3.58693C3.95411 0 4.29192 0.120682 4.56519 0.32143V8.25781H1.63042Z" fill="#BC2B29"/>
<path d="M15.6495 5.87659C15.6495 6.25837 15.4943 6.61412 15.225 6.87649C15.5295 7.2011 15.6848 7.63627 15.6424 8.08918C15.566 8.8966 14.8193 9.52931 13.9415 9.52931H9.91306C10.1126 10.1195 10.4322 11.2013 10.4322 12.0703C10.4322 13.4482 9.23024 14.6113 8.47567 14.6113C7.79807 14.6113 7.31414 14.2397 7.2933 14.2245C7.21635 14.1641 7.17135 14.0726 7.17135 13.9761V11.8219L5.2931 7.85858L5.21484 7.81984V1.01118C5.7457 0.76724 6.41742 0.635742 6.84526 0.635742H12.8315C13.5417 0.635742 14.1633 1.10203 14.3093 1.74552C14.3843 2.0765 14.3406 2.41001 14.1913 2.69968C14.6732 2.936 14.9974 3.41944 14.9974 3.97083C14.9974 4.19571 14.9446 4.41106 14.8441 4.60607C15.3261 4.84239 15.6495 5.32582 15.6495 5.87659Z" fill="#BC2B29"/>
</svg>
