<svg width="16" height="15" viewBox="0 0 16 15" fill="none" xmlns="http://www.w3.org/2000/svg">
<path d="M1.63042 6.35156C0.731736 6.35156 0 7.06436 0 7.93978V13.0221C0 13.8976 0.731736 14.6104 1.63042 14.6104H3.58693C3.95411 14.6104 4.29192 14.4897 4.56519 14.2889V6.35156H1.63042Z" fill="white"/>
<path d="M15.6495 8.73413C15.6495 8.35238 15.4943 7.99665 15.225 7.7343C15.5295 7.40971 15.6848 6.97458 15.6424 6.52169C15.566 5.71433 14.8193 5.08166 13.9415 5.08166H9.91306C10.1126 4.49154 10.4322 3.4098 10.4322 2.54083C10.4322 1.16306 9.23024 0 8.47567 0C7.79807 0 7.31414 0.371598 7.2933 0.386843C7.21635 0.447198 7.17135 0.538668 7.17135 0.6352V2.78919L5.2931 6.75227L5.21484 6.79101V13.5992C5.7457 13.8431 6.41742 13.9746 6.84526 13.9746H12.8315C13.5417 13.9746 14.1633 13.5084 14.3093 12.8649C14.3843 12.534 14.3406 12.2005 14.1913 11.9108C14.6732 11.6745 14.9974 11.1911 14.9974 10.6398C14.9974 10.4149 14.9446 10.1996 14.8441 10.0046C15.3261 9.76826 15.6495 9.28485 15.6495 8.73413Z" fill="white"/>
</svg>
