<svg width="35" height="35" viewBox="0 0 35 35" fill="none" xmlns="http://www.w3.org/2000/svg">
<path d="M17.4932 0C7.84743 0 0 7.8505 0 17.5C0 27.1495 7.84743 35 17.4932 35C27.1389 35 34.9863 27.1495 34.9863 17.5C34.9863 7.8505 27.1389 0 17.4932 0ZM17.4932 33.8333C8.4906 33.8333 1.16621 26.5061 1.16621 17.5C1.16621 8.49392 8.4906 1.16667 17.4932 1.16667C26.4957 1.16667 33.8201 8.49392 33.8201 17.5C33.8201 26.5061 26.4957 33.8333 17.4932 33.8333Z" fill="white"/>
<path d="M27.1172 17.2735L12.3573 25.7951L12.3573 8.75189L27.1172 17.2735Z" fill="#BC2B29"/>
</svg>
