<svg width="24" height="24" viewBox="0 0 24 24" fill="none" xmlns="http://www.w3.org/2000/svg">
<g clip-path="url(#clip0)">
<path d="M6.47334 20.8452C7.19287 21.5647 8.36088 21.5647 9.08041 20.8452L18.0056 11.92C18.2619 11.6638 18.459 11.3582 18.5871 11.0329C19.4841 11.2843 20.3564 11.4173 21.1252 11.4124C23.0275 11.4026 23.6584 10.5697 23.8654 10.0719C24.0723 9.57907 24.2202 8.54413 22.8846 7.18391C22.8698 7.16913 22.855 7.15434 22.8403 7.13956C22.0123 6.3116 20.8098 5.54771 19.4447 4.98096C19.1933 4.87746 18.942 4.78383 18.6956 4.69512V4.68033C18.6808 3.58625 17.7986 2.70408 16.7045 2.68929L11.3573 2.61537C10.6476 2.60551 9.96751 2.8815 9.46975 3.38418L0.53965 12.3094C-0.179883 13.0289 -0.179883 14.1969 0.53965 14.9164L6.47334 20.8452ZM13.3533 5.80891C13.9496 5.21259 14.9155 5.21259 15.5119 5.80891C15.8667 6.16375 16.0096 6.65166 15.9406 7.10999C16.5271 7.52397 17.2269 7.90838 17.976 8.21886C18.2421 8.32728 18.4984 8.42585 18.7448 8.50963L18.7153 6.36089C18.7596 6.3806 18.799 6.39538 18.8434 6.4151C20.0114 6.903 21.0611 7.56339 21.7363 8.23857C21.7462 8.24843 21.756 8.25829 21.7659 8.26814C22.4066 8.92361 22.4756 9.34252 22.4214 9.47065C22.2538 9.86984 20.455 10.2247 17.7247 9.08624C16.9263 8.75112 16.1772 8.33714 15.571 7.88866C15.5513 7.9133 15.5266 7.93795 15.5069 7.96259C14.9106 8.55891 13.9447 8.55891 13.3483 7.96259C12.7569 7.37119 12.7569 6.40524 13.3533 5.80891Z" fill="black"/>
<path d="M6.47334 20.8452C7.19287 21.5647 8.36088 21.5647 9.08041 20.8452L18.0056 11.92C18.2619 11.6638 18.459 11.3582 18.5871 11.0329C19.4841 11.2843 20.3564 11.4173 21.1252 11.4124C23.0275 11.4026 23.6584 10.5697 23.8654 10.0719C24.0723 9.57907 24.2202 8.54413 22.8846 7.18391C22.8698 7.16913 22.855 7.15434 22.8403 7.13956C22.0123 6.3116 20.8098 5.54771 19.4447 4.98096C19.1933 4.87746 18.942 4.78383 18.6956 4.69512V4.68033C18.6808 3.58625 17.7986 2.70408 16.7045 2.68929L11.3573 2.61537C10.6476 2.60551 9.96751 2.8815 9.46975 3.38418L0.53965 12.3094C-0.179883 13.0289 -0.179883 14.1969 0.53965 14.9164L6.47334 20.8452ZM13.3533 5.80891C13.9496 5.21259 14.9155 5.21259 15.5119 5.80891C15.8667 6.16375 16.0096 6.65166 15.9406 7.10999C16.5271 7.52397 17.2269 7.90838 17.976 8.21886C18.2421 8.32728 18.4984 8.42585 18.7448 8.50963L18.7153 6.36089C18.7596 6.3806 18.799 6.39538 18.8434 6.4151C20.0114 6.903 21.0611 7.56339 21.7363 8.23857C21.7462 8.24843 21.756 8.25829 21.7659 8.26814C22.4066 8.92361 22.4756 9.34252 22.4214 9.47065C22.2538 9.86984 20.455 10.2247 17.7247 9.08624C16.9263 8.75112 16.1772 8.33714 15.571 7.88866C15.5513 7.9133 15.5266 7.93795 15.5069 7.96259C14.9106 8.55891 13.9447 8.55891 13.3483 7.96259C12.7569 7.37119 12.7569 6.40524 13.3533 5.80891Z" fill="url(#paint0_linear)"/>
</g>
<defs>
<linearGradient id="paint0_linear" x1="1.84615" y1="8.87169" x2="24.49" y2="15.5533" gradientUnits="userSpaceOnUse">
<stop stop-color="#F1D473"/>
<stop offset="1" stop-color="#EBBA43"/>
</linearGradient>
<clipPath id="clip0">
<rect width="24" height="24" fill="white"/>
</clipPath>
</defs>
</svg>
