<svg width="25" height="26" viewBox="0 0 25 26" fill="none" xmlns="http://www.w3.org/2000/svg">
<path d="M12.5001 13C13.9143 13 15.1388 12.4306 16.1394 11.3073C17.1399 10.1841 17.6471 8.80976 17.6471 7.22205C17.6471 5.6349 17.1399 4.26041 16.1392 3.13685C15.1385 2.01384 13.9141 1.44446 12.5001 1.44446C11.0857 1.44446 9.86151 2.01384 8.86095 3.13703C7.8604 4.26023 7.35303 5.63472 7.35303 7.22205C7.35303 8.80976 7.8604 10.1842 8.86111 11.3074C9.86183 12.4305 11.0862 13 12.5001 13Z" fill="url(#paint0_linear)"/>
<path d="M22.0127 20.1897C21.9818 19.6997 21.9192 19.1652 21.8271 18.6008C21.7341 18.0321 21.6143 17.4946 21.4709 17.0032C21.3229 16.4954 21.1215 15.9939 20.8725 15.5133C20.6141 15.0145 20.3106 14.5801 19.9701 14.2227C19.614 13.8488 19.178 13.5481 18.6738 13.3288C18.1713 13.1107 17.6145 13.0002 17.0189 13.0002C16.785 13.0002 16.5588 13.1055 16.1219 13.4177C15.853 13.6101 15.5385 13.8326 15.1874 14.0788C14.8873 14.2887 14.4806 14.4853 13.9784 14.6634C13.4883 14.8374 12.9908 14.9256 12.4997 14.9256C12.0086 14.9256 11.5113 14.8374 11.0207 14.6634C10.519 14.4855 10.1123 14.2889 9.81249 14.079C9.46477 13.8351 9.15009 13.6126 8.87719 13.4175C8.44083 13.1053 8.21443 13 7.98052 13C7.38472 13 6.82808 13.1107 6.32581 13.329C5.82197 13.5479 5.38579 13.8486 5.02932 14.2229C4.68894 14.5805 4.38527 15.0147 4.12723 15.5133C3.87846 15.9939 3.67706 16.4952 3.52881 17.0034C3.38563 17.4947 3.26588 18.0321 3.17287 18.6008C3.08074 19.1644 3.01815 19.6991 2.98721 20.1903C2.95679 20.6715 2.94141 21.1709 2.94141 21.6752C2.94141 22.9879 3.32165 24.0506 4.07147 24.8343C4.81202 25.6077 5.7919 26 6.9835 26H18.017C19.2086 26 20.1881 25.6079 20.9288 24.8343C21.6788 24.0512 22.0591 22.9883 22.0591 21.675C22.0589 21.1684 22.0433 20.6686 22.0127 20.1897Z" fill="url(#paint1_linear)"/>
<defs>
<linearGradient id="paint0_linear" x1="7.35303" y1="6.50001" x2="17.6396" y2="7.99613" gradientUnits="userSpaceOnUse">
<stop stop-color="#F1D473"/>
<stop offset="1" stop-color="#EBBA43"/>
</linearGradient>
<linearGradient id="paint1_linear" x1="4.41199" y1="17.3333" x2="21.9948" y2="23.3004" gradientUnits="userSpaceOnUse">
<stop stop-color="#F1D473"/>
<stop offset="1" stop-color="#EBBA43"/>
</linearGradient>
</defs>
</svg>
