<svg width="20" height="22" fill="none" xmlns="http://www.w3.org/2000/svg"><path d="M7.224 12.058a.464.464 0 00-.464-.464H5.14a.464.464 0 00-.464.464v1.62c0 .256.208.464.464.464h1.62a.464.464 0 00.464-.464v-1.62zm4.05 0a.464.464 0 00-.464-.464H9.19a.464.464 0 00-.464.464v1.62c0 .256.207.464.464.464h1.62a.464.464 0 00.464-.464v-1.62zm4.048 0a.464.464 0 00-.464-.464h-1.62a.464.464 0 00-.464.464v1.62c0 .256.208.464.464.464h1.62a.464.464 0 00.464-.464v-1.62zm-8.098 4.051a.464.464 0 00-.464-.465H5.14a.464.464 0 00-.464.465v1.62c0 .256.208.463.464.463h1.62a.464.464 0 00.464-.464v-1.62zm4.05 0a.464.464 0 00-.464-.465H9.19a.464.464 0 00-.464.465v1.62c0 .256.207.463.464.463h1.62a.464.464 0 00.464-.464v-1.62zm4.048 0a.464.464 0 00-.463-.465h-1.62a.464.464 0 00-.465.465v1.62c0 .256.208.463.464.463h1.62a.464.464 0 00.464-.464v-1.62z" fill="#BC2B29"/><path d="M18.22 3.052v2.474a2.02 2.02 0 01-2.025 2.02h-1.278a2.031 2.031 0 01-2.037-2.02V3.043H7.12v2.483a2.03 2.03 0 01-2.036 2.02H3.806a2.02 2.02 0 01-2.026-2.02V3.052C.803 3.082 0 3.89 0 4.884v14.5c0 1.013.82 1.845 1.833 1.845h16.334a1.845 1.845 0 001.834-1.845v-14.5c0-.994-.803-1.803-1.78-1.832zm-.593 15.43a.793.793 0 01-.793.792H3.131a.793.793 0 01-.792-.793v-7.49c0-.437.355-.792.792-.792h13.703c.438 0 .793.355.793.792v7.49z" fill="#BC2B29"/><path d="M3.8 6.218h1.264c.384 0 .695-.31.695-.694V1.468a.694.694 0 00-.695-.695H3.801a.694.694 0 00-.695.695v4.056c0 .384.311.694.695.694zm11.102 0h1.264c.383 0 .694-.31.694-.694V1.468a.694.694 0 00-.694-.695h-1.264a.695.695 0 00-.695.695v4.056c0 .384.311.694.695.694z" fill="#BC2B29"/></svg>