<svg width="16" height="15" fill="none" xmlns="http://www.w3.org/2000/svg"><path d="M1.63 8.258C.732 8.258 0 7.545 0 6.67V1.588C0 .713.732 0 1.63 0h1.957c.367 0 .705.12.978.321v7.937H1.63zm14.02-2.381c0 .381-.156.737-.425 1 .305.324.46.76.417 1.212-.076.808-.823 1.44-1.7 1.44h-4.03c.2.59.52 1.672.52 2.541 0 1.378-1.203 2.541-1.957 2.541-.678 0-1.162-.371-1.183-.386a.316.316 0 01-.122-.249v-2.154L5.293 7.859l-.078-.04V1.012c.53-.244 1.202-.375 1.63-.375h5.987c.71 0 1.331.466 1.477 1.11.075.33.032.664-.118.954.482.236.806.72.806 1.27 0 .226-.052.441-.153.636.482.236.806.72.806 1.27z" fill="#BC2B29"/></svg>