<svg width="16" height="15" fill="none" xmlns="http://www.w3.org/2000/svg"><path d="M1.63 6.352C.732 6.352 0 7.064 0 7.94v5.082c0 .876.732 1.588 1.63 1.588h1.957c.367 0 .705-.12.978-.321V6.352H1.63zm14.02 2.382a1.39 1.39 0 00-.425-1c.305-.324.46-.76.417-1.212-.076-.808-.823-1.44-1.7-1.44h-4.03c.2-.59.52-1.672.52-2.541C10.432 1.163 9.23 0 8.475 0c-.678 0-1.162.372-1.183.387a.316.316 0 00-.122.248V2.79L5.293 6.752l-.078.039v6.808c.53.244 1.202.376 1.63.376h5.987c.71 0 1.331-.467 1.477-1.11a1.39 1.39 0 00-.118-.954 1.42 1.42 0 00.806-1.271c0-.225-.052-.44-.153-.635a1.42 1.42 0 00.806-1.27z" fill="#fff"/></svg>