<svg width="24" height="24" fill="none" xmlns="http://www.w3.org/2000/svg"><g clip-path="url(#clip0)"><path d="M6.473 20.845c.72.72 1.888.72 2.607 0l8.926-8.925c.256-.256.453-.562.581-.887.897.251 1.77.384 2.538.38 1.902-.01 2.533-.843 2.74-1.341.207-.493.355-1.528-.98-2.888l-.045-.044c-.828-.828-2.03-1.592-3.395-2.159a17.805 17.805 0 00-.75-.286V4.68a2.018 2.018 0 00-1.99-1.99l-5.348-.075a2.6 2.6 0 00-1.887.77L.54 12.308c-.72.72-.72 1.888 0 2.607l5.933 5.93zm6.88-15.036a1.526 1.526 0 012.588 1.301 10.65 10.65 0 002.035 1.109c.266.108.522.207.769.29l-.03-2.148c.045.02.084.034.128.054 1.168.488 2.218 1.148 2.893 1.824l.03.03c.64.655.71 1.074.655 1.202-.167.399-1.966.754-4.696-.385A10.54 10.54 0 0115.57 7.89c-.02.024-.044.049-.064.074a1.526 1.526 0 01-2.159 0 1.524 1.524 0 01.005-2.154z" fill="#000"/><path d="M6.473 20.845c.72.72 1.888.72 2.607 0l8.926-8.925c.256-.256.453-.562.581-.887.897.251 1.77.384 2.538.38 1.902-.01 2.533-.843 2.74-1.341.207-.493.355-1.528-.98-2.888l-.045-.044c-.828-.828-2.03-1.592-3.395-2.159a17.805 17.805 0 00-.75-.286V4.68a2.018 2.018 0 00-1.99-1.99l-5.348-.075a2.6 2.6 0 00-1.887.77L.54 12.308c-.72.72-.72 1.888 0 2.607l5.933 5.93zm6.88-15.036a1.526 1.526 0 012.588 1.301 10.65 10.65 0 002.035 1.109c.266.108.522.207.769.29l-.03-2.148c.045.02.084.034.128.054 1.168.488 2.218 1.148 2.893 1.824l.03.03c.64.655.71 1.074.655 1.202-.167.399-1.966.754-4.696-.385A10.54 10.54 0 0115.57 7.89c-.02.024-.044.049-.064.074a1.526 1.526 0 01-2.159 0 1.524 1.524 0 01.005-2.154z" fill="url(#paint0_linear)"/></g><defs><linearGradient id="paint0_linear" x1="1.846" y1="8.872" x2="24.49" y2="15.553" gradientUnits="userSpaceOnUse"><stop stop-color="#F1D473"/><stop offset="1" stop-color="#EBBA43"/></linearGradient><clipPath id="clip0"><path fill="#fff" d="M0 0h24v24H0z"/></clipPath></defs></svg>