<svg width="25" height="26" fill="none" xmlns="http://www.w3.org/2000/svg"><path d="M12.5 13c1.414 0 2.639-.57 3.64-1.693 1-1.123 1.507-2.497 1.507-4.085 0-1.587-.507-2.962-1.508-4.085-1-1.123-2.225-1.693-3.639-1.693-1.414 0-2.638.57-3.639 1.693-1 1.123-1.508 2.498-1.508 4.085 0 1.588.507 2.962 1.508 4.085 1 1.123 2.225 1.693 3.64 1.693z" fill="url(#paint0_linear)"/><path d="M22.013 20.19a16.454 16.454 0 00-.186-1.59 13.53 13.53 0 00-.356-1.597 8.293 8.293 0 00-.599-1.49 5.596 5.596 0 00-.902-1.29 3.95 3.95 0 00-1.296-.894A4.13 4.13 0 0017.019 13c-.234 0-.46.105-.897.418-.269.192-.583.415-.935.66-.3.21-.706.407-1.209.585-.49.174-.987.263-1.478.263s-.989-.089-1.48-.263c-.501-.178-.908-.374-1.208-.584a121.6 121.6 0 01-.935-.662c-.436-.312-.663-.417-.896-.417-.596 0-1.153.11-1.655.329-.504.219-.94.52-1.297.894-.34.357-.644.792-.902 1.29-.249.48-.45.982-.598 1.49a13.568 13.568 0 00-.356 1.598 16.286 16.286 0 00-.186 1.59c-.03.48-.046.98-.046 1.484 0 1.313.38 2.376 1.13 3.16.741.773 1.72 1.165 2.913 1.165h11.033c1.192 0 2.171-.392 2.912-1.166.75-.783 1.13-1.846 1.13-3.159 0-.507-.016-1.006-.046-1.485z" fill="url(#paint1_linear)"/><defs><linearGradient id="paint0_linear" x1="7.353" y1="6.5" x2="17.64" y2="7.996" gradientUnits="userSpaceOnUse"><stop stop-color="#F1D473"/><stop offset="1" stop-color="#EBBA43"/></linearGradient><linearGradient id="paint1_linear" x1="4.412" y1="17.333" x2="21.995" y2="23.3" gradientUnits="userSpaceOnUse"><stop stop-color="#F1D473"/><stop offset="1" stop-color="#EBBA43"/></linearGradient></defs></svg>