<svg width="15" height="15" viewBox="0 0 15 15" fill="none" xmlns="http://www.w3.org/2000/svg">
<path d="M13.3929 1.60714H11.7857V0.535724C11.7857 0.239847 11.5459 0 11.25 0C10.9541 0 10.7143 0.239847 10.7143 0.535724V1.60714H4.2857V0.535724C4.2857 0.239847 4.04585 0 3.75001 0C3.45416 0 3.21428 0.239847 3.21428 0.535724V1.60714H1.60714C0.719541 1.60714 0 2.32668 0 3.21428V13.3929C0 14.2805 0.719541 15 1.60714 15H13.3929C14.2805 15 15 14.2805 15 13.3929V3.21428C15 2.32668 14.2805 1.60714 13.3929 1.60714ZM13.9286 13.3929C13.9286 13.6887 13.6887 13.9286 13.3928 13.9286H1.60714C1.31126 13.9286 1.07142 13.6887 1.07142 13.3929V6.42857H13.9286V13.3929ZM13.9286 5.35715H1.07142V3.21428C1.07142 2.91841 1.31126 2.67856 1.60714 2.67856H3.21428V3.74998C3.21428 4.04585 3.45413 4.2857 3.75001 4.2857C4.04589 4.2857 4.28573 4.04585 4.28573 3.74998V2.67856H10.7143V3.74998C10.7143 4.04585 10.9541 4.2857 11.25 4.2857C11.5459 4.2857 11.7857 4.04585 11.7857 3.74998V2.67856H13.3929C13.6888 2.67856 13.9286 2.91841 13.9286 3.21428V5.35715H13.9286Z" fill="#005170"/>
<path d="M4.28561 7.5H3.21419C2.91831 7.5 2.67847 7.73984 2.67847 8.03572C2.67847 8.33159 2.91831 8.57143 3.21419 8.57143H4.28561C4.58149 8.57143 4.82134 8.33159 4.82134 8.03572C4.82134 7.73984 4.58149 7.5 4.28561 7.5Z" fill="#005170"/>
<path d="M8.0356 7.5H6.96419C6.66831 7.5 6.42847 7.73984 6.42847 8.03572C6.42847 8.33159 6.66831 8.57143 6.96419 8.57143H8.0356C8.33147 8.57143 8.57132 8.33159 8.57132 8.03572C8.57132 7.73984 8.33147 7.5 8.0356 7.5Z" fill="#005170"/>
<path d="M11.7856 7.5H10.7142C10.4183 7.5 10.1785 7.73984 10.1785 8.03572C10.1785 8.33159 10.4183 8.57143 10.7142 8.57143H11.7856C12.0815 8.57143 12.3213 8.33159 12.3213 8.03572C12.3213 7.73984 12.0815 7.5 11.7856 7.5Z" fill="#005170"/>
<path d="M4.28561 9.64453H3.21419C2.91831 9.64453 2.67847 9.88438 2.67847 10.1803C2.67847 10.4761 2.91831 10.716 3.21419 10.716H4.28561C4.58149 10.716 4.82134 10.4761 4.82134 10.1803C4.82134 9.88438 4.58149 9.64453 4.28561 9.64453Z" fill="#005170"/>
<path d="M8.0356 9.64453H6.96419C6.66831 9.64453 6.42847 9.88438 6.42847 10.1803C6.42847 10.4761 6.66831 10.716 6.96419 10.716H8.0356C8.33147 10.716 8.57132 10.4761 8.57132 10.1803C8.57132 9.88438 8.33147 9.64453 8.0356 9.64453Z" fill="#005170"/>
<path d="M11.7856 9.64453H10.7142C10.4183 9.64453 10.1785 9.88438 10.1785 10.1803C10.1785 10.4761 10.4183 10.716 10.7142 10.716H11.7856C12.0815 10.716 12.3213 10.4761 12.3213 10.1803C12.3213 9.88438 12.0815 9.64453 11.7856 9.64453Z" fill="#005170"/>
<path d="M4.28561 11.7852H3.21419C2.91831 11.7852 2.67847 12.025 2.67847 12.3209C2.67847 12.6168 2.91831 12.8566 3.21419 12.8566H4.28561C4.58149 12.8566 4.82134 12.6167 4.82134 12.3208C4.82134 12.025 4.58149 11.7852 4.28561 11.7852Z" fill="#005170"/>
<path d="M8.0356 11.7852H6.96419C6.66831 11.7852 6.42847 12.025 6.42847 12.3209C6.42847 12.6168 6.66831 12.8566 6.96419 12.8566H8.0356C8.33147 12.8566 8.57132 12.6168 8.57132 12.3209C8.57132 12.025 8.33147 11.7852 8.0356 11.7852Z" fill="#005170"/>
<path d="M11.7856 11.7852H10.7142C10.4183 11.7852 10.1785 12.025 10.1785 12.3209C10.1785 12.6168 10.4183 12.8566 10.7142 12.8566H11.7856C12.0815 12.8566 12.3213 12.6168 12.3213 12.3209C12.3213 12.025 12.0815 11.7852 11.7856 11.7852Z" fill="#005170"/>
</svg>
