<svg width="14" height="12" viewBox="0 0 14 12" fill="none" xmlns="http://www.w3.org/2000/svg">
<path d="M11.7852 0H2.32836C1.33961 0 0.535156 0.804294 0.535156 1.7932V7.58056C0.535156 8.56724 1.33611 9.37026 2.32199 9.37377V12L6.09619 9.37377H11.7852C12.7739 9.37377 13.5784 8.56931 13.5784 7.58056V1.7932C13.5784 0.804294 12.7739 0 11.7852 0ZM12.8141 7.58056C12.8141 8.14786 12.3525 8.60952 11.7852 8.60952H5.85641L3.08624 10.5372V8.60952H2.32836C1.76098 8.60952 1.29941 8.14786 1.29941 7.58056V1.7932C1.29941 1.22575 1.76098 0.76425 2.32836 0.76425H11.7852C12.3525 0.76425 12.8141 1.22575 12.8141 1.7932V7.58056Z" fill="#333333"/>
<path d="M4.02734 2.7002H10.0887V3.46444H4.02734V2.7002Z" fill="#333333"/>
<path d="M4.02734 4.33105H10.0887V5.0953H4.02734V4.33105Z" fill="#333333"/>
<path d="M4.02734 5.95996H10.0887V6.72421H4.02734V5.95996Z" fill="#333333"/>
</svg>
