<svg width="14" height="13" viewBox="0 0 14 13" fill="none" xmlns="http://www.w3.org/2000/svg">
<path d="M12.0702 1.10411H11.2248V0.379419C11.2248 0.170738 11.0669 0 10.874 0C10.6811 0 10.5232 0.170738 10.5232 0.379419V1.10411H7.08564V0.379419C7.08564 0.170738 6.9278 0 6.73487 0C6.54194 0 6.3841 0.170738 6.3841 0.379419V1.10411H2.91143V0.379419C2.91143 0.170738 2.75358 0 2.56065 0C2.36773 0 2.20988 0.170738 2.20988 0.379419V1.10411H1.39959C0.627886 1.10411 0 1.80603 0 2.64076V11.4622C0 12.3008 0.624379 12.9799 1.39959 12.9799H12.0666C12.8419 12.9799 13.4662 12.3008 13.4662 11.466V2.64076C13.4697 1.80603 12.8419 1.10411 12.0702 1.10411ZM12.7682 11.4622C12.7682 11.8796 12.4595 12.2173 12.0737 12.2211H12.0702H1.39959C1.01374 12.2211 0.701549 11.8834 0.701549 11.466V11.4622V2.64076C0.701549 2.2196 1.01374 1.86295 1.39959 1.86295H2.20988V2.4131C2.20988 2.62178 2.36773 2.79252 2.56065 2.79252C2.75358 2.79252 2.91143 2.62178 2.91143 2.4131V1.86295H6.3841V2.4131C6.3841 2.62178 6.54194 2.79252 6.73487 2.79252C6.9278 2.79252 7.08564 2.62178 7.08564 2.4131V1.86295H10.5232V2.4131C10.5232 2.62178 10.6811 2.79252 10.874 2.79252C11.0669 2.79252 11.2248 2.62178 11.2248 2.4131V1.86295H12.0702C12.4595 1.86295 12.7682 2.22339 12.7682 2.64076V11.4622Z" fill="white"/>
<path d="M5.81226 4.3291H5.19842C5.0055 4.3291 4.84766 4.49973 4.84766 4.70828C4.84766 4.91683 5.0055 5.08746 5.19842 5.08746H5.81226C6.00518 5.08746 6.16302 4.91683 6.16302 4.70828C6.16302 4.49973 6.00518 4.3291 5.81226 4.3291Z" fill="white"/>
<path d="M8.25367 4.3291H7.63983C7.44691 4.3291 7.28906 4.49973 7.28906 4.70828C7.28906 4.91683 7.44691 5.08746 7.63983 5.08746H8.25367C8.44659 5.08746 8.60443 4.91683 8.60443 4.70828C8.60443 4.49973 8.45009 4.3291 8.25367 4.3291Z" fill="white"/>
<path d="M10.7146 4.3291H10.1008C9.90785 4.3291 9.75 4.49973 9.75 4.70828C9.75 4.91683 9.90785 5.08746 10.1008 5.08746H10.7146C10.9076 5.08746 11.0654 4.91683 11.0654 4.70828C11.0654 4.49973 10.9076 4.3291 10.7146 4.3291Z" fill="white"/>
<path d="M5.81226 6.94727H5.19842C5.0055 6.94727 4.84766 7.1179 4.84766 7.32645C4.84766 7.535 5.0055 7.70564 5.19842 7.70564H5.81226C6.00518 7.70564 6.16302 7.535 6.16302 7.32645C6.16302 7.1179 6.00518 6.94727 5.81226 6.94727Z" fill="white"/>
<path d="M3.35097 6.94727H2.73359C2.54066 6.94727 2.38281 7.1179 2.38281 7.32645C2.38281 7.535 2.54066 7.70564 2.73359 7.70564H3.34746C3.54039 7.70564 3.69824 7.535 3.69824 7.32645C3.69824 7.1179 3.5439 6.94727 3.35097 6.94727Z" fill="white"/>
<path d="M8.25367 6.94727H7.63983C7.44691 6.94727 7.28906 7.1179 7.28906 7.32645C7.28906 7.535 7.44691 7.70564 7.63983 7.70564H8.25367C8.44659 7.70564 8.60443 7.535 8.60443 7.32645C8.60443 7.1179 8.45009 6.94727 8.25367 6.94727Z" fill="white"/>
<path d="M10.7146 6.94727H10.1008C9.90785 6.94727 9.75 7.1179 9.75 7.32645C9.75 7.535 9.90785 7.70564 10.1008 7.70564H10.7146C10.9076 7.70564 11.0654 7.535 11.0654 7.32645C11.0654 7.1179 10.9076 6.94727 10.7146 6.94727Z" fill="white"/>
<path d="M5.81226 9.52734H5.19842C5.0055 9.52734 4.84766 9.69798 4.84766 9.90652C4.84766 10.1151 5.0055 10.2857 5.19842 10.2857H5.81226C6.00518 10.2857 6.16302 10.1151 6.16302 9.90652C6.16302 9.69798 6.00518 9.52734 5.81226 9.52734Z" fill="white"/>
<path d="M3.35097 9.52734H2.73359C2.54066 9.52734 2.38281 9.69798 2.38281 9.90652C2.38281 10.1151 2.54066 10.2857 2.73359 10.2857H3.34746C3.54039 10.2857 3.69824 10.1151 3.69824 9.90652C3.69824 9.69798 3.5439 9.52734 3.35097 9.52734Z" fill="white"/>
<path d="M8.25367 9.52734H7.63983C7.44691 9.52734 7.28906 9.69798 7.28906 9.90652C7.28906 10.1151 7.44691 10.2857 7.63983 10.2857H8.25367C8.44659 10.2857 8.60443 10.1151 8.60443 9.90652C8.60443 9.69798 8.45009 9.52734 8.25367 9.52734Z" fill="white"/>
</svg>
