<svg width="35" height="25" viewBox="0 0 35 25" fill="none" xmlns="http://www.w3.org/2000/svg">
<path d="M33.8098 11.7409L23.5825 0.377272C23.3643 0.136363 23.0598 0 22.7371 0H15.9189C15.4712 0 15.0643 0.263636 14.8803 0.672727C14.6984 1.08409 14.7734 1.56364 15.0734 1.89545L24.6166 12.5L15.0734 23.1023C14.7734 23.4364 14.6962 23.9159 14.8803 24.325C15.0643 24.7364 15.4712 25 15.9189 25H22.7371C23.0598 25 23.3643 24.8614 23.5825 24.625L33.8098 13.2614C34.1984 12.8295 34.1984 12.1705 33.8098 11.7409Z" fill="#BC2B29"/>
<path d="M19.0286 11.7409L8.80128 0.377272C8.5831 0.136363 8.27855 0 7.95582 0H1.13764C0.689914 0 0.283096 0.263636 0.0990052 0.672727C-0.082813 1.08409 -0.00781302 1.56364 0.292187 1.89545L9.83537 12.5L0.292187 23.1023C-0.00781302 23.4364 -0.0850857 23.9159 0.0990052 24.325C0.283096 24.7364 0.689914 25 1.13764 25H7.95582C8.27855 25 8.5831 24.8614 8.80128 24.625L19.0286 13.2614C19.4172 12.8295 19.4172 12.1705 19.0286 11.7409Z" fill="#BC2B29"/>
</svg>
