<svg width="21" height="12" viewBox="0 0 21 12" fill="none" xmlns="http://www.w3.org/2000/svg">
<path d="M20.4572 5.75658C20.2955 5.52085 16.4095 0 10.2666 0C4.99542 0 0.298368 5.48915 0.100733 5.72315C-0.0335776 5.88258 -0.0335776 6.11658 0.100733 6.27685C0.298368 6.51085 4.99542 12 10.2666 12C15.5377 12 20.2347 6.51085 20.4324 6.27685C20.5564 6.12943 20.5676 5.91601 20.4572 5.75658ZM10.2666 11.1429C6.04095 11.1429 2.02319 7.10573 1.00252 6.00002C2.0215 4.89346 6.03497 0.857169 10.2666 0.857169C15.2109 0.857169 18.7007 4.88832 19.5529 5.97688C18.5689 7.04743 14.5281 11.1429 10.2666 11.1429Z" fill="#141414"/>
<path d="M10.266 2.57227C8.37863 2.57227 6.84375 4.10998 6.84375 6.00082C6.84375 7.89166 8.37863 9.42938 10.266 9.42938C12.1534 9.42938 13.6882 7.89166 13.6882 6.00082C13.6882 4.10998 12.1534 2.57227 10.266 2.57227ZM10.266 8.57229C8.8509 8.57229 7.6993 7.41856 7.6993 6.00086C7.6993 4.58316 8.8509 3.42943 10.266 3.42943C11.6811 3.42943 12.8327 4.58316 12.8327 6.00086C12.8327 7.41856 11.6811 8.57229 10.266 8.57229Z" fill="#141414"/>
</svg>
