<svg width="13" height="13" viewBox="0 0 13 13" fill="none" xmlns="http://www.w3.org/2000/svg">
<path d="M12.9644 3.72285C12.9339 3.05003 12.8222 2.58748 12.6622 2.18667C12.4972 1.76122 12.2432 1.38032 11.9105 1.06367C11.5854 0.742096 11.1918 0.492219 10.7601 0.333943C10.3462 0.178084 9.87379 0.0692816 9.18305 0.0396171C8.48716 0.00744028 8.26624 0 6.50125 0C4.73626 0 4.51534 0.00744028 3.82202 0.0371048C3.13128 0.0667693 2.65641 0.175668 2.24502 0.331431C1.80814 0.492219 1.41709 0.739584 1.09201 1.06367C0.761865 1.38032 0.50543 1.76373 0.342839 2.18426C0.182828 2.58748 0.0711272 3.04752 0.0406725 3.72034C0.00763848 4.39818 0 4.61337 0 6.33255C0 8.05174 0.00763848 8.26693 0.0380933 8.94226C0.068548 9.61508 0.180348 10.0776 0.340359 10.4784C0.50543 10.9039 0.761865 11.2848 1.09201 11.6014C1.41709 11.923 1.81072 12.1729 2.24244 12.3312C2.65641 12.487 3.12871 12.5958 3.81954 12.6255C4.51276 12.6553 4.73378 12.6626 6.49877 12.6626C8.26375 12.6626 8.48468 12.6553 9.17799 12.6255C9.86873 12.5958 10.3436 12.487 10.755 12.3312C11.6287 12.0022 12.3194 11.3293 12.6572 10.4784C12.8171 10.0752 12.9289 9.61508 12.9593 8.94226C12.9898 8.26693 12.9974 8.05174 12.9974 6.33255C12.9974 4.61337 12.9949 4.39818 12.9644 3.72285ZM11.7937 8.89279C11.7658 9.5112 11.6591 9.84514 11.5702 10.0678C11.3518 10.6194 10.9023 11.0572 10.336 11.27C10.1074 11.3566 9.76209 11.4605 9.12968 11.4876C8.444 11.5174 8.23836 11.5247 6.50383 11.5247C4.76929 11.5247 4.56107 11.5174 3.87787 11.4876C3.24299 11.4605 2.90015 11.3566 2.67159 11.27C2.38976 11.1685 2.13322 11.0078 1.925 10.7975C1.70914 10.5922 1.54407 10.3448 1.4399 10.0703C1.35102 9.84766 1.24438 9.5112 1.2165 8.8953C1.18595 8.22741 1.17841 8.02701 1.17841 6.33748C1.17841 4.64796 1.18595 4.44514 1.2165 3.77976C1.24438 3.16135 1.35102 2.82741 1.4399 2.60478C1.54407 2.33016 1.70914 2.08038 1.92758 1.87746C2.13828 1.6672 2.39224 1.50642 2.67417 1.40505C2.90273 1.31848 3.24814 1.2146 3.88045 1.18735C4.56613 1.15769 4.77187 1.15025 6.50631 1.15025C8.24342 1.15025 8.44906 1.15769 9.13226 1.18735C9.76715 1.2146 10.11 1.31848 10.3385 1.40505C10.6204 1.50642 10.8769 1.6672 11.0851 1.87746C11.301 2.0828 11.4661 2.33016 11.5702 2.60478C11.6591 2.82741 11.7658 3.16377 11.7937 3.77976C11.8242 4.44765 11.8318 4.64796 11.8318 6.33748C11.8318 8.02701 11.8242 8.2249 11.7937 8.89279Z" fill="white"/>
<path d="M6.49969 3.07812C4.65602 3.07812 3.16016 4.53505 3.16016 6.33093C3.16016 8.12682 4.65602 9.58374 6.49969 9.58374C8.34346 9.58374 9.83923 8.12682 9.83923 6.33093C9.83923 4.53505 8.34346 3.07812 6.49969 3.07812ZM6.49969 8.44095C5.30362 8.44095 4.33342 7.49605 4.33342 6.33093C4.33342 5.16582 5.30362 4.22092 6.49969 4.22092C7.69587 4.22092 8.66597 5.16582 8.66597 6.33093C8.66597 7.49605 7.69587 8.44095 6.49969 8.44095Z" fill="white"/>
<path d="M10.7507 2.95129C10.7507 3.37093 10.4016 3.71118 9.97102 3.71118C9.54049 3.71118 9.19141 3.37093 9.19141 2.95129C9.19141 2.53156 9.54049 2.19141 9.97102 2.19141C10.4016 2.19141 10.7507 2.53156 10.7507 2.95129Z" fill="white"/>
</svg>
