<svg width="10" height="13" viewBox="0 0 10 13" fill="none" xmlns="http://www.w3.org/2000/svg">
<path d="M4.54681 0C2.75447 0 1.29688 1.41979 1.29688 3.16565C1.29688 4.91151 2.75447 6.3313 4.54681 6.3313C6.33916 6.3313 7.79675 4.91151 7.79675 3.16565C7.79675 1.41979 6.33916 0 4.54681 0ZM4.54681 4.74847C3.65064 4.74847 2.92184 4.03858 2.92184 3.16565C2.92184 2.29272 3.65064 1.58282 4.54681 1.58282C5.44299 1.58282 6.17178 2.29272 6.17178 3.16565C6.17178 4.03858 5.44299 4.74847 4.54681 4.74847Z" fill="white"/>
<path d="M8.85632 6.2438C8.53864 5.93436 8.02515 5.93436 7.70746 6.2438C5.96549 7.94057 3.12991 7.94057 1.38712 6.2438C1.06944 5.93436 0.555945 5.93436 0.238262 6.2438C-0.0794207 6.55324 -0.0794207 7.05341 0.238262 7.36364C1.249 8.34815 2.53029 8.90925 3.8514 9.05566L1.53499 11.312C1.21731 11.6214 1.21731 12.1216 1.53499 12.431C1.85268 12.7404 2.36617 12.7404 2.68385 12.431L4.54689 10.6163L6.40992 12.431C6.56835 12.5853 6.77635 12.6629 6.98435 12.6629C7.19235 12.6629 7.40034 12.5853 7.55878 12.431C7.87646 12.1216 7.87646 11.6214 7.55878 11.312L5.24237 9.05566C6.56348 8.90925 7.84477 8.34815 8.85551 7.36364C9.17319 7.0542 9.17319 6.55324 8.85632 6.2438Z" fill="white"/>
</svg>
