<svg width="10" height="15" viewBox="0 0 10 15" fill="none" xmlns="http://www.w3.org/2000/svg">
<path d="M4.80228 0C2.15424 0 0 2.33015 0 5.19441C0 6.13735 0.390962 7.15148 0.407346 7.19426C0.533618 7.51845 0.782771 8.022 0.962433 8.31717L4.2551 13.7136C4.38985 13.9348 4.58928 14.0616 4.80228 14.0616C5.01527 14.0616 5.21471 13.9348 5.34945 13.7139L8.6424 8.31717C8.82235 8.022 9.07122 7.51845 9.19749 7.19426C9.21387 7.15179 9.60455 6.13766 9.60455 5.19441C9.60455 2.33015 7.45031 0 4.80228 0ZM8.67658 6.95715C8.56387 7.24773 8.33195 7.71615 8.17065 7.98075L4.8777 13.3774C4.81273 13.4841 4.79211 13.4841 4.72713 13.3774L1.43419 7.98075C1.27289 7.71615 1.04096 7.24743 0.928252 6.95684C0.923449 6.94432 0.564974 6.01085 0.564974 5.19441C0.564974 2.66718 2.46583 0.611107 4.80228 0.611107C7.13873 0.611107 9.03958 2.66718 9.03958 5.19441C9.03958 6.01207 8.68026 6.94798 8.67658 6.95715Z" fill="white"/>
<path d="M4.80408 2.44434C3.40211 2.44434 2.26172 3.67816 2.26172 5.19432C2.26172 6.71048 3.40211 7.94431 4.80408 7.94431C6.20605 7.94431 7.34644 6.71048 7.34644 5.19432C7.34644 3.67816 6.20605 2.44434 4.80408 2.44434ZM4.80408 7.3332C3.71397 7.3332 2.82669 6.37376 2.82669 5.19432C2.82669 4.01488 3.71397 3.05544 4.80408 3.05544C5.89418 3.05544 6.78147 4.01488 6.78147 5.19432C6.78147 6.37376 5.89418 7.3332 4.80408 7.3332Z" fill="white"/>
</svg>
