<svg width="12" height="12" viewBox="0 0 12 12" fill="none" xmlns="http://www.w3.org/2000/svg">
<path d="M9.66016 3.75C8.62671 3.75 7.78516 2.909 7.78516 1.875C7.78516 0.841003 8.62671 0 9.66016 0C10.6937 0 11.5352 0.841003 11.5352 1.875C11.5352 2.909 10.6937 3.75 9.66016 3.75ZM9.66016 0.75C9.04016 0.75 8.53516 1.25446 8.53516 1.875C8.53516 2.49554 9.04016 3 9.66016 3C10.2802 3 10.7852 2.49554 10.7852 1.875C10.7852 1.25446 10.2802 0.75 9.66016 0.75Z" fill="#141414"/>
<path d="M9.66016 12C8.62671 12 7.78516 11.159 7.78516 10.125C7.78516 9.091 8.62671 8.25 9.66016 8.25C10.6937 8.25 11.5352 9.091 11.5352 10.125C11.5352 11.159 10.6937 12 9.66016 12ZM9.66016 9C9.04016 9 8.53516 9.50446 8.53516 10.125C8.53516 10.7455 9.04016 11.25 9.66016 11.25C10.2802 11.25 10.7852 10.7455 10.7852 10.125C10.7852 9.50446 10.2802 9 9.66016 9Z" fill="#141414"/>
<path d="M2.41016 7.875C1.37662 7.875 0.535156 7.034 0.535156 6C0.535156 4.966 1.37662 4.125 2.41016 4.125C3.4437 4.125 4.28516 4.966 4.28516 6C4.28516 7.034 3.4437 7.875 2.41016 7.875ZM2.41016 4.875C1.79016 4.875 1.28516 5.37946 1.28516 6C1.28516 6.62054 1.79016 7.125 2.41016 7.125C3.03015 7.125 3.53516 6.62054 3.53516 6C3.53516 5.37946 3.03015 4.875 2.41016 4.875Z" fill="#141414"/>
<path d="M3.71907 5.63556C3.58852 5.63556 3.46153 5.56754 3.39305 5.4466C3.29051 5.2666 3.35305 5.03754 3.53304 4.93509L8.17255 2.29004C8.35199 2.18659 8.58151 2.24957 8.6835 2.43012C8.78604 2.61011 8.72351 2.83908 8.54352 2.94162L3.90401 5.58658C3.84551 5.61954 3.78206 5.63556 3.71907 5.63556Z" fill="#141414"/>
<path d="M8.35365 9.75885C8.29066 9.75885 8.22712 9.74282 8.16862 9.70941L3.52909 7.06437C3.3491 6.96193 3.28666 6.73286 3.38911 6.55287C3.4911 6.37242 3.72016 6.30989 3.90015 6.41289L8.53959 9.05783C8.71958 9.16037 8.78211 9.38934 8.67967 9.56933C8.61063 9.69082 8.48365 9.75885 8.35365 9.75885Z" fill="#141414"/>
</svg>
