<svg width="13" height="13" viewBox="0 0 13 13" fill="none" xmlns="http://www.w3.org/2000/svg">
<path d="M8.80578 4.19539C8.22113 3.61073 7.39573 3.23242 6.50156 3.23242C5.60738 3.23242 4.78199 3.59353 4.19733 4.19539C3.61268 4.78004 3.23438 5.60544 3.23438 6.49962C3.23438 7.3938 3.61268 8.2192 4.19733 8.80386C4.78199 9.38851 5.60738 9.76682 6.50156 9.76682C7.39573 9.76682 8.22113 9.40571 8.80578 8.80386C9.39043 8.2192 9.76874 7.3938 9.76874 6.49962C9.76874 5.60544 9.40763 4.78004 8.80578 4.19539ZM8.18673 8.18481C7.75684 8.6147 7.15499 8.87264 6.50156 8.87264C5.84812 8.87264 5.24627 8.6147 4.81638 8.18481C4.38649 7.75491 4.12855 7.15306 4.12855 6.49962C4.12855 5.84618 4.38649 5.24433 4.81638 4.81443C5.24627 4.38454 5.84812 4.1266 6.50156 4.1266C7.15499 4.1266 7.75684 4.38454 8.18673 4.81443C8.61663 5.24433 8.87456 5.84618 8.87456 6.49962C8.87456 7.15306 8.61663 7.75491 8.18673 8.18481Z" fill="white"/>
<path d="M12.5524 6.05273H11.2283C10.9876 6.05273 10.7812 6.25896 10.7812 6.49955C10.7812 6.74014 10.9876 6.94636 11.2283 6.94636H12.5524C12.7932 6.94636 12.9995 6.74014 12.9995 6.49955C12.9995 6.25896 12.7932 6.05273 12.5524 6.05273Z" fill="white"/>
<path d="M6.50177 10.7812C6.26103 10.7812 6.05469 10.9876 6.05469 11.2283V12.5524C6.05469 12.7932 6.26103 12.9995 6.50177 12.9995C6.74251 12.9995 6.94885 12.7932 6.94885 12.5524V11.2283C6.94885 10.9876 6.74251 10.7812 6.50177 10.7812Z" fill="white"/>
<path d="M11.0922 10.4722L10.1465 9.52643C9.99169 9.35447 9.69936 9.35447 9.52741 9.52643C9.35545 9.69839 9.35545 9.97352 9.52741 10.1455L10.4732 11.0912C10.6451 11.2632 10.9203 11.2632 11.0922 11.0912C11.2642 10.9193 11.2642 10.6442 11.0922 10.4722Z" fill="white"/>
<path d="M6.50177 0C6.26103 0 6.05469 0.20635 6.05469 0.447091V1.77117C6.05469 2.01191 6.26103 2.21826 6.50177 2.21826C6.74251 2.21826 6.94885 2.01191 6.94885 1.77117V0.447091C6.94885 0.20635 6.74251 0 6.50177 0Z" fill="white"/>
<path d="M11.1078 1.90924C10.9359 1.73728 10.6608 1.73728 10.4888 1.90924L9.54303 2.85501C9.37107 3.02697 9.37107 3.3021 9.54303 3.47406C9.69779 3.64601 9.99012 3.64601 10.1621 3.47406L11.1078 2.52829C11.2798 2.35633 11.2798 2.0812 11.1078 1.90924Z" fill="white"/>
<path d="M1.77117 6.05273H0.447092C0.20635 6.05273 0 6.25896 0 6.49955C0 6.74014 0.189154 6.94636 0.447092 6.94636H1.77117C2.01191 6.94636 2.21826 6.74014 2.21826 6.49955C2.21826 6.25896 2.01191 6.05273 1.77117 6.05273Z" fill="white"/>
<path d="M3.4555 9.52643C3.30074 9.35447 3.00841 9.35447 2.83646 9.52643L1.89069 10.4722C1.71873 10.6442 1.71873 10.9193 1.89069 11.0912C2.06265 11.2632 2.33778 11.2632 2.50974 11.0912L3.4555 10.1455C3.62746 9.97352 3.62746 9.69839 3.4555 9.52643Z" fill="white"/>
<path d="M3.4555 2.85501L2.50974 1.90924C2.33778 1.73728 2.06265 1.73728 1.89069 1.90924C1.71873 2.0812 1.71873 2.35633 1.89069 2.52829L2.83646 3.47406C3.00841 3.64601 3.28355 3.64601 3.4555 3.47406C3.62746 3.3021 3.62746 3.02697 3.4555 2.85501Z" fill="white"/>
</svg>
