<svg width="13" height="11" viewBox="0 0 13 11" fill="none" xmlns="http://www.w3.org/2000/svg">
<path d="M13 1.21792C12.5166 1.42447 12.0014 1.56138 11.4644 1.62785C12.0169 1.30656 12.4386 0.80166 12.6368 0.193095C12.1217 0.492234 11.5529 0.70353 10.9468 0.821445C10.4577 0.314175 9.76056 0 9.00006 0C7.52456 0 6.33669 1.16648 6.33669 2.59649C6.33669 2.80225 6.35456 3.00009 6.39844 3.18844C4.18275 3.08319 2.22219 2.04886 0.905125 0.473241C0.675187 0.861805 0.540313 1.30656 0.540313 1.78534C0.540313 2.68434 1.01562 3.48125 1.72413 3.94262C1.29594 3.9347 0.875875 3.81362 0.52 3.6229C0.52 3.63082 0.52 3.6411 0.52 3.65139C0.52 4.91284 1.44381 5.96062 2.65525 6.20199C2.43831 6.25976 2.20187 6.28745 1.9565 6.28745C1.78587 6.28745 1.61362 6.27796 1.45194 6.24314C1.79725 7.27113 2.77713 8.02689 3.94225 8.05142C3.0355 8.74229 1.88419 9.15855 0.637812 9.15855C0.41925 9.15855 0.209625 9.14906 0 9.12294C1.18056 9.86446 2.57969 10.2878 4.0885 10.2878C8.99275 10.2878 11.674 6.33098 11.674 2.90117C11.674 2.78642 11.6699 2.67563 11.6643 2.56563C12.1932 2.20002 12.6376 1.74339 13 1.21792Z" fill="white"/>
</svg>
