<svg width="13" height="8" viewBox="0 0 13 8" fill="none" xmlns="http://www.w3.org/2000/svg">
<path d="M10.7873 4.23702C10.5771 3.9784 10.6372 3.86335 10.7873 3.63218C10.79 3.62954 12.5249 1.29359 12.7037 0.501391L12.7048 0.500863C12.7936 0.212167 12.7048 0 12.2752 0H10.8539C10.4921 0 10.3252 0.182084 10.2358 0.385807C10.2358 0.385807 9.51218 2.07365 8.48843 3.16773C8.15802 3.48387 8.00527 3.58521 7.82489 3.58521C7.73606 3.58521 7.59794 3.48387 7.59794 3.19518V0.500863C7.59794 0.154639 7.49664 0 7.1971 0H4.96219C4.73524 0 4.60036 0.161501 4.60036 0.311918C4.60036 0.640197 5.11224 0.715669 5.16532 1.63928V3.64326C5.16532 4.08238 5.08353 4.16313 4.90207 4.16313C4.4189 4.16313 3.2462 2.46843 2.55124 0.528835C2.41095 0.152528 2.27391 0.000527741 1.90937 0.000527741H0.487499C0.0817914 0.000527741 0 0.182612 0 0.386335C0 0.74628 0.483165 2.53598 2.24683 4.90043C3.42224 6.51438 5.07757 7.38892 6.5834 7.38892C7.48852 7.38892 7.59902 7.19469 7.59902 6.86061C7.59902 5.31844 7.51723 5.17277 7.9706 5.17277C8.18077 5.17277 8.5426 5.2741 9.3876 6.05258C10.3534 6.97566 10.5121 7.38892 11.0527 7.38892H12.474C12.8792 7.38892 13.0845 7.19469 12.9664 6.81152C12.6961 6.00561 10.8696 4.34785 10.7873 4.23702Z" fill="white"/>
</svg>
