<svg width="15" height="15" viewBox="0 0 15 15" fill="none" xmlns="http://www.w3.org/2000/svg">
<path d="M10.692 3.51953H0.745965C0.333907 3.51953 0 3.85338 0 4.26547V14.2115C0 14.6236 0.333907 14.9575 0.745965 14.9575H10.692C11.1041 14.9575 11.4379 14.6236 11.4379 14.2115V4.26547C11.4379 3.85338 11.1041 3.51953 10.692 3.51953ZM9.94604 13.4655H1.4919V5.0114H9.94604V13.4655Z" fill="#005170"/>
<path d="M14.8522 12.5499H14.0431V3.84417H14.8522C14.9119 3.84417 14.9658 3.80823 14.9886 3.7529C15.0117 3.69754 14.9991 3.63413 14.9566 3.59168L13.6504 2.28554C13.5926 2.22774 13.4989 2.22774 13.4412 2.28554L12.135 3.59168C12.0925 3.63416 12.0799 3.69754 12.1029 3.7529C12.1258 3.80823 12.1797 3.84417 12.2394 3.84417H13.0485V12.5499H12.2394C12.1797 12.5499 12.1258 12.5858 12.1029 12.6412C12.0799 12.6965 12.0925 12.76 12.135 12.8024L13.4412 14.1086C13.4989 14.1664 13.5927 14.1664 13.6504 14.1086L14.9566 12.8024C14.9991 12.76 15.0117 12.6966 14.9886 12.6412C14.9658 12.5858 14.9119 12.5499 14.8522 12.5499Z" fill="#005170"/>
<path d="M2.1566 2.86506C2.19907 2.90754 2.26246 2.92018 2.31784 2.89711C2.3732 2.87431 2.40915 2.82039 2.40915 2.76064V1.95157H11.1149V2.76064C11.1149 2.82039 11.1508 2.87431 11.2061 2.89711C11.2615 2.92018 11.3249 2.90754 11.3674 2.86506L12.6735 1.55892C12.7313 1.50109 12.7313 1.40734 12.6735 1.34958L11.3674 0.0434573C11.3249 0.000948414 11.2615 -0.0116852 11.2061 0.0113849C11.1508 0.0342109 11.1149 0.0881023 11.1149 0.147853V0.956986H2.40915V0.147853C2.40915 0.0881328 2.37323 0.0342109 2.31784 0.0113849C2.26249 -0.0116852 2.19907 0.000948414 2.1566 0.0434573L0.850477 1.34958C0.79268 1.40734 0.79268 1.50109 0.850477 1.55892L2.1566 2.86506Z" fill="#005170"/>
</svg>
