<svg width="15" height="15" fill="none" xmlns="http://www.w3.org/2000/svg"><path d="M13.393 1.607h-1.607V.536a.536.536 0 10-1.072 0v1.071H4.286V.536a.536.536 0 10-1.072 0v1.071H1.607C.72 1.607 0 2.327 0 3.214v10.179C0 14.28.72 15 1.607 15h11.786C14.28 15 15 14.28 15 13.393V3.214c0-.887-.72-1.607-1.607-1.607zm.536 11.786c0 .296-.24.536-.536.536H1.607a.536.536 0 01-.536-.536V6.429H13.93v6.964zm0-8.036H1.07V3.214c0-.296.24-.535.536-.535h1.607V3.75a.536.536 0 001.072 0V2.679h6.428V3.75a.536.536 0 101.072 0V2.679h1.607c.296 0 .536.24.536.535v2.143z" fill="#005170"/><path d="M4.286 7.5H3.214a.536.536 0 100 1.071h1.072a.536.536 0 100-1.071zm3.75 0H6.964a.536.536 0 100 1.071h1.072a.536.536 0 100-1.071zm3.75 0h-1.072a.536.536 0 100 1.071h1.072a.536.536 0 100-1.071zm-7.5 2.145H3.214a.536.536 0 000 1.071h1.072a.536.536 0 000-1.071zm3.75 0H6.964a.536.536 0 000 1.071h1.072a.536.536 0 000-1.071zm3.75 0h-1.072a.536.536 0 100 1.071h1.072a.536.536 0 000-1.071zm-7.5 2.14H3.214a.536.536 0 100 1.072h1.072a.536.536 0 000-1.072zm3.75 0H6.964a.536.536 0 100 1.072h1.072a.536.536 0 100-1.072zm3.75 0h-1.072a.536.536 0 100 1.072h1.072a.536.536 0 100-1.072z" fill="#005170"/></svg>