<svg width="15" height="15" fill="none" xmlns="http://www.w3.org/2000/svg"><path d="M10.692 3.52H.746A.746.746 0 000 4.265v9.947c0 .412.334.745.746.745h9.946a.746.746 0 00.746-.746V4.265a.746.746 0 00-.746-.745zm-.746 9.946H1.492V5.01h8.454v8.454zm4.906-.916h-.809V3.844h.81a.147.147 0 00.104-.252L13.65 2.286a.148.148 0 00-.209 0l-1.306 1.306a.147.147 0 00.104.252h.81v8.706h-.81a.148.148 0 00-.104.252l1.306 1.307a.148.148 0 00.21 0l1.306-1.307a.147.147 0 00-.104-.253zM2.157 2.865a.147.147 0 00.252-.104v-.81h8.706v.81a.147.147 0 00.252.104l1.306-1.306a.148.148 0 000-.21L11.367.044a.147.147 0 00-.252.105v.809H2.409v-.81a.148.148 0 00-.252-.104L.85 1.35a.148.148 0 000 .209l1.307 1.306z" fill="#005170"/></svg>